<svg width="14" height="14" viewBox="0 0 14 14" fill="none" xmlns="http://www.w3.org/2000/svg">
<path d="M2.69941 0.0494565C2.1094 -0.0164855 1.49997 -0.0164855 0.909962 0.0494565C0.465637 0.0991163 0.105564 0.448837 0.0529525 0.898666C-0.0176508 1.50232 -0.0176508 2.11215 0.0529525 2.71581C0.105564 3.16564 0.465637 3.51536 0.909962 3.56502C1.49997 3.63096 2.1094 3.63096 2.69941 3.56502C3.14374 3.51536 3.50381 3.16564 3.55642 2.71581C3.62702 2.11215 3.62702 1.50232 3.55642 0.898665C3.50381 0.448837 3.14374 0.0991163 2.69941 0.0494565Z" fill="#C4C4C4"/>
<path d="M7.89472 0.0494565C7.30472 -0.0164855 6.69528 -0.0164855 6.10527 0.0494565C5.66095 0.0991163 5.30087 0.448837 5.24826 0.898666C5.17766 1.50232 5.17766 2.11215 5.24826 2.71581C5.30087 3.16564 5.66095 3.51536 6.10527 3.56502C6.69528 3.63096 7.30471 3.63096 7.89472 3.56502C8.33905 3.51536 8.69912 3.16564 8.75173 2.71581C8.82233 2.11215 8.82233 1.50232 8.75173 0.898665C8.69912 0.448837 8.33905 0.0991163 7.89472 0.0494565Z" fill="#C4C4C4"/>
<path d="M13.09 0.0494565C12.5 -0.0164855 11.8906 -0.0164855 11.3006 0.0494565C10.8563 0.0991163 10.4962 0.448837 10.4436 0.898666C10.373 1.50232 10.373 2.11215 10.4436 2.71581C10.4962 3.16564 10.8563 3.51536 11.3006 3.56502C11.8906 3.63096 12.5 3.63096 13.09 3.56502C13.5344 3.51536 13.8944 3.16564 13.947 2.71581C14.0177 2.11215 14.0177 1.50232 13.947 0.898665C13.8944 0.448837 13.5344 0.0991163 13.09 0.0494565Z" fill="#C4C4C4"/>
<path d="M2.69941 5.24477C2.1094 5.17883 1.49997 5.17883 0.909962 5.24477C0.465637 5.29443 0.105564 5.64415 0.0529525 6.09398C-0.0176508 6.69764 -0.0176508 7.30747 0.0529525 7.91113C0.105564 8.36096 0.465637 8.71068 0.909962 8.76034C1.49997 8.82628 2.1094 8.82628 2.69941 8.76034C3.14374 8.71068 3.50381 8.36096 3.55642 7.91113C3.62702 7.30747 3.62702 6.69764 3.55642 6.09398C3.50381 5.64415 3.14374 5.29443 2.69941 5.24477Z" fill="#C4C4C4"/>
<path d="M7.89472 5.24477C7.30472 5.17883 6.69528 5.17883 6.10527 5.24477C5.66095 5.29443 5.30087 5.64415 5.24826 6.09398C5.17766 6.69764 5.17766 7.30747 5.24826 7.91113C5.30087 8.36096 5.66095 8.71068 6.10527 8.76034C6.69528 8.82628 7.30471 8.82628 7.89472 8.76034C8.33905 8.71068 8.69912 8.36096 8.75173 7.91113C8.82233 7.30747 8.82233 6.69764 8.75173 6.09398C8.69912 5.64415 8.33905 5.29443 7.89472 5.24477Z" fill="#C4C4C4"/>
<path d="M13.09 5.24477C12.5 5.17883 11.8906 5.17883 11.3006 5.24477C10.8563 5.29443 10.4962 5.64415 10.4436 6.09398C10.373 6.69764 10.373 7.30747 10.4436 7.91113C10.4962 8.36096 10.8563 8.71068 11.3006 8.76034C11.8906 8.82628 12.5 8.82628 13.09 8.76034C13.5344 8.71068 13.8944 8.36096 13.947 7.91113C14.0177 7.30747 14.0177 6.69764 13.947 6.09398C13.8944 5.64415 13.5344 5.29443 13.09 5.24477Z" fill="#C4C4C4"/>
<path d="M2.69941 10.4401C2.1094 10.3741 1.49997 10.3741 0.909962 10.4401C0.465637 10.4898 0.105564 10.8395 0.0529525 11.2893C-0.0176508 11.893 -0.0176508 12.5028 0.0529525 13.1064C0.105564 13.5563 0.465637 13.906 0.909962 13.9557C1.49997 14.0216 2.1094 14.0216 2.69941 13.9557C3.14374 13.906 3.50381 13.5563 3.55642 13.1064C3.62702 12.5028 3.62702 11.893 3.55642 11.2893C3.50381 10.8395 3.14374 10.4898 2.69941 10.4401Z" fill="#C4C4C4"/>
<path d="M7.89472 10.4401C7.30472 10.3741 6.69528 10.3741 6.10527 10.4401C5.66095 10.4898 5.30087 10.8395 5.24826 11.2893C5.17766 11.893 5.17766 12.5028 5.24826 13.1064C5.30087 13.5563 5.66095 13.906 6.10527 13.9557C6.69528 14.0216 7.30471 14.0216 7.89472 13.9557C8.33905 13.906 8.69912 13.5563 8.75173 13.1064C8.82233 12.5028 8.82233 11.893 8.75173 11.2893C8.69912 10.8395 8.33905 10.4898 7.89472 10.4401Z" fill="#C4C4C4"/>
<path d="M13.09 10.4401C12.5 10.3741 11.8906 10.3741 11.3006 10.4401C10.8563 10.4898 10.4962 10.8395 10.4436 11.2893C10.373 11.893 10.373 12.5028 10.4436 13.1064C10.4962 13.5563 10.8563 13.906 11.3006 13.9557C11.8906 14.0216 12.5 14.0216 13.09 13.9557C13.5344 13.906 13.8944 13.5563 13.947 13.1064C14.0177 12.5028 14.0177 11.893 13.947 11.2893C13.8944 10.8395 13.5344 10.4898 13.09 10.4401Z" fill="#C4C4C4"/>
</svg>
