<svg width="14" height="12" viewBox="0 0 14 12" fill="none" xmlns="http://www.w3.org/2000/svg">
<path d="M3.40174 0.156101C5.79607 -0.0520334 8.20393 -0.0520336 10.5983 0.1561L11.7518 0.256377C12.5197 0.323132 13.1774 0.781175 13.5182 1.43637C13.5618 1.52019 13.5291 1.62167 13.4488 1.6714L8.66271 4.63423C7.63622 5.26967 6.34191 5.283 5.30255 4.66884L0.484464 1.82179C0.406622 1.77579 0.370892 1.68111 0.405973 1.59777C0.717734 0.857191 1.41865 0.328487 2.24819 0.256377L3.40174 0.156101Z" fill="#C4C4C4"/>
<path d="M0.402052 3.10391C0.282923 3.03352 0.130919 3.10927 0.117032 3.24695C-0.0767776 5.16846 -0.0298702 7.10816 0.257755 9.02086C0.409385 10.0292 1.23234 10.8022 2.24819 10.8905L3.40174 10.9908C5.79606 11.1989 8.20394 11.1989 10.5983 10.9908L11.7518 10.8905C12.7677 10.8022 13.5906 10.0292 13.7422 9.02086C14.0383 7.05242 14.0793 5.05538 13.8654 3.07901C13.8504 2.94036 13.6958 2.866 13.5772 2.93941L9.26577 5.60841C7.877 6.46813 6.12587 6.48617 4.71968 5.65524L0.402052 3.10391Z" fill="#C4C4C4"/>
</svg>
