<svg width="115" height="28" viewBox="0 0 115 28" fill="none" xmlns="http://www.w3.org/2000/svg">
<g clip-path="url(#clip0_1_13276)">
<path d="M34.4847 22.8733C34.4847 23.0734 34.4424 23.2452 34.3592 23.3914C34.274 23.5375 34.1603 23.6581 34.0172 23.751C33.8722 23.844 33.7116 23.9126 33.5335 23.9562V23.9735C33.8865 24.0165 34.1551 24.1236 34.3384 24.2935C34.5218 24.464 34.6141 24.691 34.6141 24.975C34.6141 25.2283 34.551 25.4552 34.4255 25.6553C34.3001 25.8547 34.1063 26.0117 33.8456 26.1252C33.5855 26.2406 33.2487 26.297 32.8385 26.297C32.596 26.297 32.3703 26.2785 32.161 26.2406C31.9516 26.2009 31.754 26.1425 31.5693 26.063V25.2828C31.7579 25.3776 31.9549 25.4501 32.1629 25.4982C32.369 25.5463 32.5608 25.5706 32.739 25.5706C33.0725 25.5706 33.3046 25.5136 33.4392 25.4001C33.5719 25.2866 33.6382 25.1263 33.6382 24.9218C33.6382 24.8012 33.607 24.6999 33.5459 24.6153C33.4847 24.5326 33.3762 24.4691 33.2227 24.4262C33.0693 24.3832 32.8541 24.3627 32.5804 24.3627H32.2468V23.6587H32.5875C32.858 23.6587 33.0641 23.6331 33.2058 23.5831C33.3476 23.5331 33.4431 23.4645 33.4938 23.3766C33.5446 23.2888 33.5706 23.1875 33.5706 23.0753C33.5706 22.922 33.5218 22.8015 33.4256 22.7137C33.3293 22.6258 33.1688 22.5829 32.9457 22.5829C32.804 22.5829 32.6766 22.6002 32.5615 22.6342C32.4464 22.6688 32.343 22.7098 32.2507 22.7579C32.1584 22.8079 32.0758 22.8541 32.0063 22.899L31.5765 22.2687C31.7494 22.1463 31.9503 22.043 32.1824 21.9622C32.4146 21.8815 32.6902 21.8398 33.0101 21.8398C33.4639 21.8398 33.8235 21.9295 34.0894 22.1103C34.3527 22.2912 34.486 22.5444 34.486 22.8727L34.4847 22.8733ZM35.0731 24.3973C35.0731 24.1479 35.092 23.9017 35.129 23.6568C35.1654 23.4138 35.2304 23.1836 35.3228 22.9663C35.4151 22.7509 35.5445 22.5585 35.7103 22.3912C35.8761 22.2245 36.0893 22.0918 36.3455 21.9949C36.6023 21.9001 36.9131 21.852 37.2778 21.852C37.3637 21.852 37.4644 21.8552 37.5802 21.8622C37.6952 21.8693 37.7915 21.8808 37.8662 21.8968V22.6303C37.7856 22.6111 37.7004 22.5976 37.6094 22.5854C37.5184 22.5752 37.428 22.5701 37.337 22.5701C36.9723 22.5701 36.6907 22.6271 36.4918 22.7425C36.2909 22.8579 36.1511 23.0163 36.0692 23.2176C35.9872 23.4209 35.9398 23.6568 35.9261 23.9254H35.9664C36.0224 23.8293 36.0919 23.7427 36.1777 23.6671C36.2636 23.5927 36.3663 23.5324 36.4885 23.4882C36.6108 23.4452 36.7538 23.4228 36.9196 23.4228C37.1764 23.4228 37.3981 23.476 37.5867 23.5831C37.7752 23.6914 37.9202 23.8466 38.0229 24.0498C38.1257 24.255 38.1764 24.5025 38.1764 24.7955C38.1764 25.1071 38.1153 25.3757 37.993 25.6014C37.8708 25.8271 37.6978 26.0008 37.4748 26.1195C37.2499 26.2381 36.984 26.2983 36.6784 26.2983C36.4534 26.2983 36.2434 26.2605 36.0497 26.1848C35.8559 26.1092 35.6849 25.9938 35.538 25.8373C35.391 25.6809 35.2779 25.4841 35.196 25.2449C35.1141 25.0071 35.0718 24.725 35.0718 24.398L35.0731 24.3973ZM36.6621 25.5661C36.8435 25.5661 36.9924 25.504 37.1075 25.3821C37.2213 25.2597 37.2785 25.0673 37.2785 24.807C37.2785 24.5954 37.2297 24.43 37.1302 24.3076C37.0308 24.1851 36.8806 24.1248 36.6797 24.1248C36.5438 24.1248 36.4229 24.1543 36.3201 24.2146C36.2174 24.2749 36.1368 24.3524 36.0809 24.4435C36.025 24.5345 35.997 24.6294 35.997 24.7275C35.997 24.8275 36.0113 24.9269 36.0386 25.0257C36.0666 25.1257 36.1082 25.2148 36.166 25.2962C36.222 25.377 36.2915 25.4424 36.3754 25.4924C36.4573 25.5424 36.5535 25.5668 36.6615 25.5668L36.6621 25.5661ZM41.6749 24.0716C41.6749 24.4211 41.647 24.7346 41.593 25.0083C41.5371 25.284 41.448 25.5181 41.3278 25.7091C41.2075 25.9002 41.0482 26.0464 40.8512 26.1464C40.6542 26.2483 40.4162 26.2977 40.1353 26.2977C39.7829 26.2977 39.493 26.2099 39.2674 26.0329C39.0405 25.8553 38.8727 25.6008 38.7648 25.2686C38.6549 24.9365 38.6009 24.5371 38.6009 24.0723C38.6009 23.6042 38.6516 23.2029 38.7511 22.8688C38.8506 22.5367 39.0112 22.2803 39.2368 22.1027C39.4618 21.9251 39.7608 21.8359 40.136 21.8359C40.4871 21.8359 40.7751 21.9238 41.004 22.1014C41.2309 22.279 41.4006 22.5335 41.5105 22.8656C41.6203 23.1997 41.6762 23.6023 41.6762 24.0723L41.6749 24.0716ZM39.5242 24.0716C39.5242 24.4005 39.543 24.6756 39.5801 24.8961C39.6165 25.118 39.6796 25.2834 39.7686 25.3937C39.8577 25.5059 39.9799 25.561 40.1353 25.561C40.2907 25.561 40.413 25.5059 40.502 25.3956C40.5911 25.2853 40.6542 25.1199 40.6925 24.9C40.7289 24.6794 40.7485 24.4044 40.7485 24.0716C40.7485 23.7408 40.7289 23.4657 40.6925 23.2433C40.6542 23.0208 40.5911 22.856 40.502 22.7438C40.413 22.6316 40.2907 22.5765 40.1353 22.5765C39.9799 22.5765 39.8577 22.6316 39.7686 22.7438C39.6796 22.856 39.6172 23.0208 39.5801 23.2433C39.5437 23.4651 39.5242 23.7408 39.5242 24.0716ZM42.0839 24.9827V24.2402H43.6989V24.9827H42.0839ZM48.083 24.0306C48.083 24.5179 47.9888 24.9256 47.8002 25.2533C47.6097 25.5802 47.336 25.8264 46.9777 25.9919C46.6182 26.1573 46.1852 26.24 45.6806 26.24H44.4356V21.9045H45.8165C46.2775 21.9045 46.6774 21.9853 47.0161 22.1456C47.3548 22.3059 47.6169 22.545 47.8035 22.8605C47.9901 23.1753 48.083 23.5664 48.083 24.0312V24.0306ZM47.1156 24.053C47.1156 23.7331 47.0681 23.4696 46.9725 23.2631C46.8763 23.0567 46.7365 22.9035 46.5519 22.8054C46.3653 22.7073 46.1364 22.6573 45.864 22.6573H45.3679V25.4809H45.7678C46.2235 25.4809 46.5623 25.3603 46.784 25.1212C47.0057 24.882 47.1156 24.5275 47.1156 24.0537V24.053ZM50.3086 22.8618C50.6193 22.8618 50.8866 22.9201 51.1115 23.0375C51.3371 23.1561 51.5094 23.3266 51.6317 23.5491C51.7539 23.7728 51.815 24.0466 51.815 24.3685V24.8077H49.6467C49.6558 25.0628 49.7338 25.2622 49.8788 25.4071C50.0238 25.5533 50.226 25.6258 50.4848 25.6258C50.6993 25.6258 50.897 25.6033 51.0751 25.5604C51.2533 25.5174 51.4366 25.4533 51.6252 25.3661V26.065C51.4594 26.1457 51.2845 26.206 51.1031 26.2438C50.9217 26.2797 50.7013 26.299 50.4431 26.299C50.1064 26.299 49.8092 26.2368 49.5492 26.115C49.2891 25.9925 49.0862 25.8066 48.938 25.5552C48.7898 25.3039 48.7163 24.9872 48.7163 24.6063C48.7163 24.2191 48.7826 23.8953 48.9172 23.6369C49.0518 23.3805 49.2364 23.1856 49.4757 23.0567C49.715 22.9278 49.9926 22.8624 50.3086 22.8624V22.8618ZM50.3138 23.5055C50.1356 23.5055 49.9874 23.5619 49.8703 23.6741C49.7533 23.7863 49.6851 23.9633 49.6675 24.2043H50.9542C50.9522 24.0703 50.9282 23.9511 50.8807 23.8459C50.8339 23.7408 50.7624 23.6581 50.6694 23.5965C50.5771 23.5363 50.4581 23.5055 50.3131 23.5055H50.3138Z" fill="#FEFEFE"/>
<path d="M53.5557 27.698C53.0863 27.698 52.728 27.6172 52.4803 27.4569C52.2326 27.2966 52.1084 27.0716 52.1084 26.7805C52.1084 26.5804 52.1715 26.4137 52.2989 26.2797C52.4244 26.1438 52.6097 26.0476 52.8561 25.9906C52.7618 25.9508 52.6799 25.8874 52.6097 25.7963C52.5382 25.7066 52.5031 25.6123 52.5031 25.5104C52.5031 25.3847 52.5395 25.2795 52.6149 25.1956C52.6883 25.1116 52.795 25.0289 52.9361 24.9474C52.7599 24.8737 52.6201 24.7532 52.5167 24.5858C52.414 24.4191 52.3613 24.2242 52.3613 23.9985C52.3613 23.7575 52.4153 23.5529 52.5219 23.3824C52.6285 23.2138 52.7859 23.0843 52.9913 22.9951C53.1955 22.9073 53.4471 22.8624 53.7423 22.8624C53.8034 22.8624 53.8769 22.8656 53.9588 22.8746C54.0407 22.8836 54.1161 22.8919 54.1857 22.9002C54.254 22.9105 54.3008 22.9188 54.3255 22.9246H55.499V23.3843L54.9718 23.5183C55.0205 23.5908 55.0576 23.6683 55.0816 23.751C55.1044 23.8357 55.1167 23.9235 55.1167 24.0165C55.1167 24.373 54.9913 24.6499 54.7396 24.8481C54.488 25.0462 54.1389 25.1455 53.6903 25.1455C53.5836 25.1404 53.4842 25.1321 53.3899 25.1231C53.3444 25.1597 53.3093 25.1956 53.2852 25.2353C53.2605 25.2751 53.2488 25.3161 53.2488 25.359C53.2488 25.402 53.2683 25.4386 53.3047 25.4674C53.3411 25.4969 53.399 25.5174 53.4744 25.5328C53.5492 25.5482 53.6422 25.5552 53.7553 25.5552H54.3261C54.6948 25.5552 54.9757 25.6328 55.1694 25.7893C55.3632 25.9457 55.4594 26.1752 55.4594 26.4779C55.4594 26.8651 55.2955 27.1645 54.9685 27.3787C54.6402 27.5922 54.1688 27.6986 53.5563 27.6986L53.5557 27.698ZM53.594 27.1094C53.8125 27.1094 54.001 27.0889 54.1577 27.0491C54.3151 27.0074 54.4354 26.951 54.5212 26.8766C54.6051 26.8023 54.6467 26.7132 54.6467 26.6099C54.6467 26.5272 54.6226 26.4618 54.5732 26.4137C54.5244 26.3657 54.451 26.331 54.3515 26.3124C54.252 26.2919 54.1246 26.2817 53.9711 26.2817H53.4946C53.3827 26.2817 53.2833 26.299 53.1942 26.3349C53.1051 26.3708 53.0336 26.4208 52.9809 26.4849C52.9283 26.5484 52.9023 26.6247 52.9023 26.7087C52.9023 26.8343 52.9634 26.9324 53.0856 27.003C53.2059 27.0735 53.3756 27.11 53.5934 27.11L53.594 27.1094ZM53.7423 24.5942C53.9152 24.5942 54.0407 24.5409 54.1213 24.4358C54.2019 24.3306 54.2416 24.1896 54.2416 24.0107C54.2416 23.8113 54.1993 23.6613 54.1174 23.5613C54.0336 23.4612 53.9081 23.4112 53.7423 23.4112C53.5726 23.4112 53.4471 23.4612 53.3632 23.5613C53.2781 23.6613 53.2358 23.8107 53.2358 24.0107C53.2358 24.1896 53.2781 24.3313 53.3613 24.4358C53.4432 24.5409 53.5706 24.5942 53.7416 24.5942H53.7423ZM57.9274 22.8624C57.9749 22.8624 58.0289 22.8643 58.09 22.8695C58.1511 22.8746 58.1999 22.8816 58.2382 22.89L58.1686 23.7369C58.1387 23.728 58.0952 23.7196 58.0412 23.7145C57.9872 23.7094 57.9385 23.7074 57.8982 23.7074C57.7811 23.7074 57.6661 23.7228 57.5542 23.7523C57.4424 23.7818 57.3429 23.8299 57.2558 23.8953C57.1667 23.9626 57.0972 24.0485 57.0464 24.1569C56.9957 24.2652 56.9697 24.396 56.9697 24.5531V26.2406H56.053V22.9246H56.748L56.8826 23.4824H56.9281C56.9944 23.3702 57.0764 23.267 57.1758 23.1727C57.2753 23.0778 57.3891 23.0041 57.5165 22.947C57.644 22.89 57.7805 22.8631 57.9287 22.8631L57.9274 22.8624ZM60.2355 22.8624C60.5463 22.8624 60.8135 22.9208 61.0385 23.0381C61.2641 23.1567 61.4364 23.3272 61.5586 23.5497C61.6809 23.7735 61.742 24.0473 61.742 24.3691V24.8083H59.5737C59.5828 25.0635 59.6608 25.2629 59.8058 25.4078C59.9508 25.554 60.153 25.6264 60.4117 25.6264C60.6263 25.6264 60.8239 25.604 61.0021 25.561C61.1802 25.5181 61.3636 25.4539 61.5521 25.3667V26.0656C61.3863 26.1464 61.2114 26.2066 61.03 26.2445C60.8486 26.2804 60.6282 26.2996 60.3701 26.2996C60.0333 26.2996 59.7362 26.2374 59.4761 26.1156C59.2161 25.9931 59.0132 25.8072 58.865 25.5559C58.7167 25.3046 58.6433 24.9878 58.6433 24.607C58.6433 24.2197 58.7096 23.8959 58.8442 23.6376C58.9788 23.3811 59.1634 23.1862 59.4027 23.0573C59.6419 22.9285 59.9196 22.8631 60.2355 22.8631V22.8624ZM60.2407 23.5061C60.0626 23.5061 59.9143 23.5626 59.7973 23.6748C59.6803 23.787 59.612 23.9639 59.5945 24.205H60.8812C60.8792 24.071 60.8551 23.9517 60.8077 23.8466C60.7609 23.7414 60.6894 23.6587 60.5964 23.5972C60.5041 23.5369 60.3851 23.5061 60.2401 23.5061H60.2407ZM63.8739 22.8624C64.1847 22.8624 64.4519 22.9208 64.6769 23.0381C64.9025 23.1567 65.0748 23.3272 65.197 23.5497C65.3192 23.7735 65.3803 24.0473 65.3803 24.3691V24.8083H63.212C63.2211 25.0635 63.2991 25.2629 63.4441 25.4078C63.5891 25.554 63.7913 25.6264 64.0501 25.6264C64.2646 25.6264 64.4623 25.604 64.6404 25.561C64.8186 25.5181 65.0019 25.4539 65.1905 25.3667V26.0656C65.0247 26.1464 64.8498 26.2066 64.6684 26.2445C64.487 26.2804 64.2666 26.2996 64.0085 26.2996C63.6717 26.2996 63.3746 26.2374 63.1145 26.1156C62.8544 25.9931 62.6516 25.8072 62.5033 25.5559C62.3551 25.3046 62.2816 24.9878 62.2816 24.607C62.2816 24.2197 62.3479 23.8959 62.4825 23.6376C62.6171 23.3811 62.8018 23.1862 63.041 23.0573C63.2803 22.9285 63.5579 22.8631 63.8739 22.8631V22.8624ZM63.8791 23.5061C63.7009 23.5061 63.5527 23.5626 63.4357 23.6748C63.3186 23.787 63.2504 23.9639 63.2328 24.205H64.5195C64.5176 24.071 64.4935 23.9517 64.446 23.8466C64.3992 23.7414 64.3277 23.6587 64.2347 23.5972C64.1424 23.5369 64.0234 23.5061 63.8784 23.5061H63.8791ZM71.334 26.24H70.2742L69.1234 24.4134L68.7287 24.6923V26.24H67.7964V21.9045H68.7287V23.8876C68.7898 23.8036 68.851 23.7171 68.9121 23.6331C68.9732 23.5491 69.0343 23.4625 69.0954 23.3785L70.2859 21.9045H71.3209L69.7865 23.8222L71.3333 26.2393L71.334 26.24ZM73.724 22.8618C74.0835 22.8618 74.3735 22.9579 74.592 23.1509C74.8098 23.3439 74.9183 23.6517 74.9183 24.0774V26.24H74.0016V24.3031C74.0016 24.0652 73.958 23.8863 73.8709 23.7658C73.7838 23.6453 73.6473 23.585 73.4607 23.585C73.1798 23.585 72.9893 23.6799 72.8866 23.8671C72.7838 24.055 72.7331 24.3268 72.7331 24.6801V26.24H71.8164V22.924H72.5166L72.6408 23.349H72.6915C72.763 23.2336 72.8541 23.1407 72.9607 23.0701C73.0673 22.9996 73.1876 22.9464 73.3183 22.9118C73.449 22.8791 73.5855 22.8618 73.7253 22.8618H73.724ZM78.9195 24.5762C78.9195 24.8532 78.8831 25.0981 78.8077 25.3116C78.7329 25.5251 78.6224 25.7059 78.4793 25.8521C78.3343 26.0002 78.1614 26.1124 77.9605 26.1861C77.7596 26.2605 77.5327 26.2983 77.2798 26.2983C77.0438 26.2983 76.8259 26.2605 76.6289 26.1861C76.4313 26.1124 76.2603 26.0002 76.1153 25.8521C75.9703 25.7059 75.8572 25.5251 75.7785 25.3116C75.6979 25.0981 75.6582 24.8538 75.6582 24.5762C75.6582 24.2075 75.7246 23.8959 75.8572 23.6414C75.9898 23.3869 76.1784 23.192 76.4228 23.0592C76.6673 22.9265 76.9586 22.8611 77.2973 22.8611C77.6133 22.8611 77.8929 22.9265 78.1354 23.0592C78.3779 23.192 78.5704 23.3862 78.7095 23.6414C78.8493 23.8959 78.9188 24.2075 78.9188 24.5762H78.9195ZM76.5938 24.5762C76.5938 24.7929 76.6185 24.9756 76.6673 25.1237C76.7148 25.2738 76.7895 25.3853 76.8923 25.4597C76.995 25.5334 77.1283 25.5719 77.2921 25.5719C77.4547 25.5719 77.5853 25.5341 77.6868 25.4597C77.7882 25.3853 77.863 25.2738 77.9104 25.1237C77.9579 24.9756 77.98 24.7929 77.98 24.5762C77.98 24.3557 77.9572 24.1736 77.9104 24.0267C77.863 23.8818 77.7882 23.7735 77.6868 23.6998C77.584 23.6273 77.4514 23.5914 77.285 23.5914C77.0425 23.5914 76.8676 23.6741 76.7577 23.8376C76.6478 24.0011 76.5938 24.2473 76.5938 24.5762ZM82.4408 26.2393L82.1808 25.0789C82.1665 25.0103 82.1443 24.9083 82.1125 24.7724C82.0793 24.6365 82.0462 24.4916 82.0091 24.3371C81.9727 24.1819 81.9376 24.0376 81.9064 23.9049C81.8752 23.7722 81.8524 23.676 81.8381 23.6158H81.8121C81.7978 23.676 81.7757 23.7722 81.7458 23.9049C81.7159 24.0376 81.6814 24.1819 81.6444 24.339C81.608 24.4954 81.5728 24.6422 81.5416 24.7782C81.5085 24.916 81.4838 25.0212 81.4682 25.0917L81.1977 26.24H80.2114L79.2543 22.924H80.1691L80.5566 24.3928C80.5826 24.4941 80.6086 24.6166 80.6334 24.7577C80.6561 24.9006 80.6789 25.0366 80.6977 25.1673C80.7172 25.3001 80.7309 25.4033 80.74 25.4809H80.764C80.7692 25.4238 80.7783 25.3469 80.79 25.252C80.8024 25.1571 80.818 25.059 80.8356 24.9577C80.8512 24.8557 80.8668 24.7628 80.883 24.6807C80.8986 24.5999 80.909 24.5429 80.9181 24.5134L81.3336 22.9246H82.3446L82.7373 24.5134C82.7516 24.5704 82.7705 24.6615 82.7932 24.7852C82.816 24.9109 82.8368 25.0385 82.8563 25.1712C82.8738 25.3039 82.8842 25.4071 82.8862 25.4809H82.9089C82.9174 25.4135 82.9317 25.3135 82.9525 25.1815C82.9714 25.0487 82.9961 24.9109 83.0221 24.7647C83.0481 24.6185 83.076 24.4941 83.104 24.3928L83.5071 22.924H84.4063L83.4388 26.24H82.4402L82.4408 26.2393ZM85.8666 26.2393H84.9498V21.625H85.8666V26.2393ZM88.2163 22.8611C88.5271 22.8611 88.7943 22.9195 89.0193 23.0368C89.2442 23.1554 89.4172 23.326 89.5394 23.5484C89.6616 23.7722 89.7227 24.046 89.7227 24.3678V24.807H87.5544C87.5629 25.0622 87.6415 25.2616 87.7865 25.4065C87.9315 25.5527 88.1337 25.6251 88.3925 25.6251C88.607 25.6251 88.8047 25.6027 88.9828 25.5597C89.161 25.5168 89.3443 25.4527 89.5329 25.3655V26.0643C89.3671 26.1451 89.1922 26.2054 89.0108 26.2432C88.8294 26.2791 88.609 26.2983 88.3509 26.2983C88.0141 26.2983 87.717 26.2361 87.4569 26.1143C87.1968 25.9919 86.994 25.8059 86.8457 25.5546C86.6975 25.3033 86.624 24.9865 86.624 24.6057C86.624 24.2184 86.6903 23.8947 86.8249 23.6363C86.9595 23.3798 87.1442 23.1849 87.3834 23.056C87.6227 22.9272 87.9003 22.8618 88.2163 22.8618V22.8611ZM88.2215 23.5048C88.0433 23.5048 87.8951 23.5613 87.7781 23.6735C87.661 23.7857 87.5928 23.9626 87.5752 24.2037H88.8619C88.86 24.0697 88.8359 23.9504 88.7884 23.8453C88.7416 23.7401 88.6701 23.6574 88.5771 23.5959C88.4848 23.5356 88.3658 23.5048 88.2208 23.5048H88.2215ZM91.5315 26.297C91.1564 26.297 90.8521 26.1528 90.6167 25.863C90.3814 25.5738 90.2624 25.1481 90.2624 24.5871C90.2624 24.019 90.3814 23.5882 90.62 23.2978C90.8592 23.0067 91.17 22.8605 91.5556 22.8605C91.7162 22.8605 91.8579 22.8829 91.9801 22.9259C92.1024 22.9688 92.209 23.0272 92.2981 23.0996C92.3871 23.174 92.4619 23.2561 92.525 23.3478H92.5549C92.5425 23.2843 92.5289 23.1894 92.5113 23.0657C92.4938 22.9432 92.4853 22.8163 92.4853 22.6855V21.625H93.4073V26.2393H92.7018L92.5256 25.8091H92.4853C92.4275 25.9002 92.3546 25.9829 92.2688 26.0573C92.1817 26.131 92.0783 26.19 91.958 26.2329C91.8377 26.2759 91.6941 26.2983 91.5322 26.2983L91.5315 26.297ZM91.8546 25.5777C92.1043 25.5777 92.2825 25.5039 92.3852 25.3558C92.4886 25.2097 92.5425 24.9872 92.549 24.6916V24.5935C92.549 24.2717 92.4983 24.0235 92.3988 23.853C92.2974 23.6824 92.1108 23.5965 91.8384 23.5965C91.6362 23.5965 91.4769 23.6824 91.3638 23.8549C91.25 24.0267 91.1928 24.2749 91.1928 24.5986C91.1928 24.9244 91.2506 25.1686 91.3657 25.3321C91.4808 25.4956 91.6433 25.5783 91.8546 25.5783V25.5777Z" fill="#FEFEFE"/>
<path d="M95.3652 27.6986C94.8958 27.6986 94.5376 27.6178 94.2899 27.4575C94.0421 27.2972 93.918 27.0722 93.918 26.7811C93.918 26.5811 93.981 26.4144 94.1085 26.2804C94.234 26.1445 94.4193 26.0483 94.6657 25.9912C94.5714 25.9515 94.4895 25.888 94.4192 25.797C94.3477 25.7072 94.3126 25.6129 94.3126 25.511C94.3126 25.3853 94.349 25.2802 94.4245 25.1962C94.4979 25.1122 94.6045 25.0295 94.7456 24.9481C94.5694 24.8743 94.4297 24.7538 94.3263 24.5865C94.2235 24.4198 94.1709 24.2249 94.1709 23.9992C94.1709 23.7581 94.2248 23.5536 94.3315 23.383C94.4381 23.2144 94.5954 23.0849 94.8009 22.9958C95.0051 22.9079 95.2567 22.8631 95.5518 22.8631C95.613 22.8631 95.6864 22.8663 95.7684 22.8752C95.8503 22.8842 95.9257 22.8926 95.9953 22.9009C96.0635 22.9111 96.1103 22.9195 96.1351 22.9252H97.3086V23.385L96.7813 23.519C96.8301 23.5914 96.8671 23.669 96.8912 23.7517C96.914 23.8363 96.9263 23.9242 96.9263 24.0171C96.9263 24.3736 96.8008 24.6506 96.5492 24.8487C96.2976 25.0468 95.9484 25.1462 95.4998 25.1462C95.3932 25.1411 95.2937 25.1327 95.1995 25.1237C95.1539 25.1603 95.1188 25.1962 95.0948 25.2359C95.0701 25.2757 95.0584 25.3167 95.0584 25.3597C95.0584 25.4026 95.0779 25.4392 95.1143 25.468C95.1507 25.4975 95.2086 25.5181 95.284 25.5334C95.3587 25.5488 95.4517 25.5559 95.5648 25.5559H96.1357C96.5043 25.5559 96.7852 25.6335 96.979 25.7899C97.1727 25.9463 97.2689 26.1759 97.2689 26.4785C97.2689 26.8657 97.1051 27.1652 96.7781 27.3793C96.4497 27.5928 95.9784 27.6992 95.3659 27.6992L95.3652 27.6986ZM95.4036 27.11C95.6221 27.11 95.8106 27.0895 95.9673 27.0498C96.1246 27.0081 96.2449 26.9517 96.3308 26.8773C96.4146 26.8029 96.4562 26.7138 96.4562 26.6106C96.4562 26.5279 96.4322 26.4625 96.3828 26.4144C96.334 26.3663 96.2605 26.3317 96.1611 26.3131C96.0616 26.2926 95.9341 26.2823 95.7807 26.2823H95.3041C95.1923 26.2823 95.0928 26.2996 95.0038 26.3355C94.9147 26.3714 94.8432 26.4214 94.7905 26.4855C94.7378 26.549 94.7118 26.6253 94.7118 26.7093C94.7118 26.835 94.7729 26.9331 94.8952 27.0036C95.0155 27.0741 95.1851 27.1107 95.403 27.1107L95.4036 27.11ZM95.5518 24.5948C95.7248 24.5948 95.8503 24.5416 95.9309 24.4364C96.0115 24.3313 96.0512 24.1902 96.0512 24.0114C96.0512 23.812 96.0096 23.6619 95.9276 23.5619C95.8438 23.4619 95.7183 23.4119 95.5525 23.4119C95.3828 23.4119 95.2573 23.4619 95.1734 23.5619C95.0883 23.6619 95.046 23.8113 95.046 24.0114C95.046 24.1902 95.0883 24.3319 95.1715 24.4364C95.2534 24.5416 95.3809 24.5948 95.5518 24.5948ZM99.2481 22.8631C99.5588 22.8631 99.8261 22.9214 100.051 23.0387C100.276 23.1573 100.449 23.3279 100.571 23.5504C100.693 23.7741 100.755 24.0479 100.755 24.3698V24.8089H98.5862C98.5946 25.0641 98.6733 25.2635 98.8183 25.4084C98.9633 25.5546 99.1655 25.627 99.4243 25.627C99.6388 25.627 99.8365 25.6046 100.015 25.5617C100.193 25.5187 100.376 25.4546 100.565 25.3674V26.0662C100.399 26.147 100.224 26.2073 100.043 26.2451C99.8612 26.281 99.6408 26.3003 99.3827 26.3003C99.0459 26.3003 98.7487 26.2381 98.4887 26.1162C98.2286 25.9938 98.0257 25.8079 97.8775 25.5565C97.7293 25.3052 97.6558 24.9885 97.6558 24.6076C97.6558 24.2204 97.7221 23.8966 97.8567 23.6382C97.9913 23.3817 98.1759 23.1868 98.4152 23.058C98.6545 22.9291 98.9321 22.8637 99.2481 22.8637V22.8631ZM99.2533 23.5068C99.0751 23.5068 98.9269 23.5632 98.8099 23.6754C98.6928 23.7876 98.6246 23.9646 98.607 24.2056H99.8937C99.8917 24.0716 99.8677 23.9524 99.8202 23.8472C99.7734 23.7421 99.7019 23.6594 99.6089 23.5978C99.5166 23.5375 99.3976 23.5068 99.2526 23.5068H99.2533ZM106.774 26.2406H105.844V24.3691H104.104V26.2406H103.171V21.9052H104.104V23.6042H105.844V21.9052H106.774V26.2406ZM110.897 22.9246V26.2406H110.193L110.069 25.8168H110.021C109.95 25.929 109.859 26.022 109.751 26.0925C109.642 26.163 109.524 26.2163 109.393 26.249C109.263 26.2817 109.128 26.299 108.986 26.299C108.745 26.299 108.536 26.2579 108.358 26.1733C108.179 26.0887 108.042 25.9579 107.942 25.7809C107.843 25.6033 107.792 25.3712 107.792 25.0872V22.9246H108.71V24.8615C108.71 25.0994 108.754 25.2783 108.839 25.3988C108.925 25.5193 109.063 25.5796 109.252 25.5796C109.438 25.5796 109.583 25.5366 109.69 25.452C109.796 25.368 109.871 25.2456 109.915 25.0821C109.958 24.9186 109.979 24.7205 109.979 24.4845V22.9246H110.896H110.897ZM112.777 21.6263V22.6989C112.777 22.8246 112.774 22.947 112.766 23.0689C112.759 23.1913 112.751 23.2875 112.74 23.3548H112.777C112.866 23.2189 112.986 23.1016 113.138 23.0054C113.29 22.9105 113.487 22.8624 113.73 22.8624C114.107 22.8624 114.413 23.0073 114.649 23.2978C114.883 23.5888 115 24.0139 115 24.5768C115 24.9538 114.946 25.2706 114.837 25.527C114.729 25.7835 114.577 25.9746 114.383 26.1041C114.19 26.2329 113.963 26.2983 113.706 26.2983C113.46 26.2983 113.264 26.2554 113.123 26.1675C112.981 26.0816 112.866 25.9835 112.777 25.8745H112.714L112.56 26.2393H111.86V21.625H112.777V21.6263ZM113.435 23.5856C113.274 23.5856 113.147 23.6183 113.052 23.6837C112.958 23.7491 112.89 23.8472 112.846 23.9767C112.803 24.1075 112.78 24.2729 112.777 24.4723V24.5704C112.777 24.8923 112.826 25.1404 112.922 25.311C113.018 25.4815 113.192 25.5674 113.447 25.5674C113.636 25.5674 113.786 25.4815 113.898 25.309C114.008 25.1372 114.064 24.8891 114.064 24.5653C114.064 24.2396 114.008 23.9953 113.896 23.8318C113.782 23.6683 113.629 23.5856 113.435 23.5856Z" fill="#FEFEFE"/>
<path d="M88.8118 -0.113281C89.449 0.0143073 90.0952 0.090604 90.722 0.277178C93.0639 0.975389 94.753 2.39553 95.7355 4.61904C96.3395 5.98725 96.5722 7.42406 96.6028 8.90768C96.634 10.3983 96.5079 11.8647 96.03 13.2874C95.6236 14.4972 94.9832 15.5814 94.0606 16.4681C92.9274 17.5581 91.5549 18.2415 89.9938 18.532C87.8099 18.9378 85.6422 18.9211 83.5207 18.1979C81.2204 17.4138 79.6691 15.8641 78.8187 13.6246C78.108 11.7531 78.0287 9.81234 78.1912 7.84594C78.3011 6.51363 78.6178 5.24159 79.2543 4.0529C80.171 2.33911 81.5442 1.14209 83.39 0.475934C84.1572 0.198958 84.9439 0.00661352 85.7599 -0.0613482C85.8145 -0.0658363 85.8672 -0.0953291 85.9211 -0.113281H88.8124L88.8118 -0.113281ZM93.1328 9.2866C93.192 8.28897 93.0789 7.29198 92.7915 6.31872C92.3019 4.65751 91.3689 3.36751 89.6538 2.75458C88.516 2.34745 87.3404 2.31218 86.1617 2.48465C84.479 2.73021 83.2015 3.57653 82.403 5.0813C81.8725 6.0815 81.6736 7.15863 81.5786 8.27422C81.4414 9.88415 81.5637 11.4582 82.1339 12.9783C82.6293 14.2997 83.5116 15.2781 84.8542 15.8212C86.0239 16.295 87.241 16.3354 88.4698 16.1783C90.5321 15.9148 91.9001 14.7748 92.6127 12.8681C93.0418 11.7204 93.1959 10.5234 93.1322 9.28467L93.1328 9.2866Z" fill="#FEFEFE"/>
<path d="M31.6738 0.768236C31.8175 0.447661 32.0769 0.287374 32.4209 0.255958C33.0606 0.196972 33.7037 0.158503 34.3369 0.273269C34.9182 0.378417 35.082 0.59769 35.1204 1.17793C35.1275 1.29077 35.1243 1.40425 35.1243 1.51774C35.1243 6.72258 35.1243 11.9274 35.1243 17.1329C35.1243 17.2688 35.1308 17.4054 35.1158 17.54C35.0502 18.1164 34.7732 18.362 34.1893 18.3652C33.6503 18.3678 33.1107 18.353 32.5724 18.3697C32.1647 18.3825 31.8578 18.253 31.6745 17.8818V0.768877L31.6738 0.768236Z" fill="#FEFEFE"/>
<path d="M102.725 5.77557V6.26605C102.725 9.95522 102.724 13.6444 102.727 17.3342C102.727 17.6759 102.674 17.9927 102.384 18.2145C102.226 18.335 102.034 18.3684 101.831 18.3658C101.269 18.3594 100.707 18.3658 100.144 18.3632C99.534 18.3607 99.2681 18.0984 99.2674 17.4919C99.2661 14.074 99.2668 10.6566 99.2668 7.23867C99.2668 5.23572 99.2668 3.23213 99.2668 1.22918C99.2668 0.559825 99.4274 0.329653 100.09 0.249509C100.667 0.179624 101.255 0.168083 101.836 0.273873C102.132 0.327729 102.345 0.482887 102.524 0.730371C104.306 3.18148 106.099 5.62426 107.887 8.07152C108.959 9.53783 110.028 11.0054 111.099 12.4724C111.189 12.5967 111.285 12.7166 111.39 12.8545C111.486 12.6936 111.448 12.5557 111.448 12.4262C111.45 8.78191 111.45 5.13763 111.45 1.49398C111.45 1.36895 111.446 1.24457 111.454 1.12083C111.484 0.612399 111.699 0.358505 112.212 0.273232C112.838 0.169366 113.471 0.172572 114.095 0.263615C114.736 0.356581 114.908 0.591241 114.909 1.22213C114.909 4.33427 114.909 7.4464 114.909 10.5585C114.909 12.8333 114.909 15.1081 114.908 17.3829C114.908 18.1228 114.665 18.3632 113.92 18.3652C113.519 18.3664 113.115 18.337 112.716 18.3722C112.198 18.4184 111.847 18.2119 111.554 17.8086C109.901 15.5306 108.238 13.2597 106.579 10.9868C105.368 9.32817 104.157 7.66952 102.944 6.01151C102.899 5.94932 102.838 5.89739 102.724 5.77685L102.725 5.77557Z" fill="#FEFEFE"/>
<path d="M63.0094 18.366C62.6421 18.366 62.2741 18.3468 61.9087 18.3711C61.4906 18.3994 61.2526 18.2275 61.1005 17.8473C60.659 16.7439 60.187 15.652 59.7469 14.5486C59.6292 14.2537 59.4699 14.146 59.1402 14.1485C56.9609 14.1639 54.7815 14.162 52.6028 14.1505C52.2699 14.1485 52.0937 14.2389 51.9682 14.5653C51.543 15.6751 51.0729 16.7676 50.6334 17.8723C50.493 18.2243 50.2713 18.3827 49.8792 18.3731C49.0997 18.3538 48.3194 18.3692 47.5392 18.3667C47.0815 18.3647 46.9086 18.1487 47.0744 17.7152C47.337 17.0292 47.6387 16.3573 47.928 15.6802C48.8168 13.5978 49.7069 11.516 50.597 9.43353C51.6204 7.03884 52.6437 4.64479 53.6684 2.25074C53.8778 1.76155 54.0982 1.27684 54.3062 0.787002C54.4681 0.405518 54.7756 0.238179 55.1703 0.225356C55.6397 0.209968 56.1111 0.213174 56.5812 0.224073C57.0486 0.235614 57.3295 0.493997 57.5051 0.911385C58.0265 2.15329 58.5603 3.39071 59.0908 4.62876C60.1877 7.18887 61.2871 9.74769 62.3839 12.3078C63.1329 14.0556 63.88 15.8046 64.6244 17.555C64.6725 17.6684 64.707 17.7922 64.72 17.914C64.7525 18.2262 64.6374 18.357 64.3182 18.3628C63.8826 18.3711 63.4463 18.3654 63.0107 18.3654V18.366H63.0094ZM55.8692 4.75251C55.8049 4.87304 55.7743 4.91985 55.7535 4.97114C54.881 7.09847 54.0117 9.22644 53.1346 11.3506C53.0169 11.6365 53.1067 11.7 53.3914 11.6987C55.0435 11.6904 56.6949 11.6891 58.347 11.6994C58.6598 11.7013 58.6929 11.6141 58.5804 11.3448C57.9946 9.94453 57.4231 8.53913 56.8471 7.13565C56.5298 6.36179 56.2125 5.58728 55.8699 4.75186L55.8692 4.75251Z" fill="#FEFEFE"/>
<path d="M72.0916 10.3124C72.0916 12.5865 72.0909 14.8607 72.0929 17.1342C72.0929 17.3502 72.0805 17.5625 72.0188 17.7715C71.903 18.1619 71.6566 18.3607 71.2457 18.3645C70.6495 18.3709 70.0526 18.3735 69.4571 18.3639C68.9786 18.3562 68.7263 18.128 68.6249 17.6708C68.5748 17.4471 68.5644 17.2239 68.5644 16.9976C68.5651 12.4615 68.5651 7.92471 68.5644 3.38859C68.5644 2.88465 68.5638 2.884 68.0534 2.884C66.6887 2.88336 65.324 2.88529 63.9599 2.88272C63.155 2.88144 62.9216 2.6455 62.9203 1.84534C62.9203 1.57414 62.9099 1.30165 62.9261 1.03109C62.9547 0.556635 63.1342 0.372626 63.5964 0.271324C63.7895 0.229008 63.9807 0.21875 64.1758 0.21875C68.2699 0.219391 72.364 0.21875 76.4581 0.219391C77.5628 0.219391 77.804 0.460463 77.8059 1.56196C77.8072 2.66217 77.5875 2.884 76.4906 2.884C75.1604 2.884 73.8301 2.89234 72.4999 2.87823C72.1839 2.87503 72.0851 2.97697 72.0864 3.28729C72.0968 5.62876 72.0922 7.97088 72.0922 10.3124H72.0916Z" fill="#FEFEFE"/>
<path d="M44.3394 18.3639C43.9493 18.3639 43.5579 18.346 43.1698 18.3697C42.8096 18.3915 42.558 18.2427 42.3395 17.9831C40.5515 15.8538 38.7603 13.7271 36.971 11.5992C36.5699 11.1215 36.1655 10.6458 35.7793 10.1566C35.3372 9.59685 35.3346 8.97173 35.7916 8.41201C36.802 7.17203 37.8293 5.94551 38.8494 4.71258C39.9274 3.40977 41.0105 2.1108 42.0768 0.79901C42.3935 0.409191 42.7582 0.19633 43.277 0.211717C43.9877 0.232875 44.6996 0.217488 45.4109 0.216847C45.6385 0.216847 45.866 0.245057 45.9648 0.474588C46.0656 0.707325 45.9551 0.896464 45.7939 1.08624C44.3635 2.77503 42.9442 4.47279 41.5196 6.16542C40.7004 7.13869 39.8851 8.11387 39.0509 9.07431C38.8923 9.25704 38.9131 9.34231 39.0607 9.5135C40.2785 10.9215 41.48 12.3429 42.6925 13.7547C43.7725 15.0113 44.8596 16.2622 45.9427 17.5163C45.9941 17.5759 46.0435 17.6394 46.0825 17.708C46.3062 18.0953 46.1658 18.3517 45.7158 18.3614C45.2568 18.371 44.7978 18.3633 44.3394 18.3633V18.3639Z" fill="#FEFEFE"/>
<path fill-rule="evenodd" clip-rule="evenodd" d="M12.4097 11.7114H12.408L0.750977 0.0240333L12.4097 0V11.7114Z" fill="white"/>
<path fill-rule="evenodd" clip-rule="evenodd" d="M25.8699 15L20.1279 20.746L25.8699 26.5586V15Z" fill="white"/>
<path fill-rule="evenodd" clip-rule="evenodd" d="M20.0574 15L14.3154 20.746L20.0574 26.5586V15Z" fill="white"/>
<path fill-rule="evenodd" clip-rule="evenodd" d="M6.12373 17.4404C6.12373 18.2081 5.50143 18.8301 4.73408 18.8301C3.96673 18.8301 3.34473 18.2081 3.34473 17.4404C3.34473 16.6731 3.96673 16.0508 4.73408 16.0508C5.50143 16.0508 6.12373 16.6731 6.12373 17.4404Z" fill="white"/>
<path fill-rule="evenodd" clip-rule="evenodd" d="M11.7253 17.4404C11.7253 18.2081 11.103 18.8301 10.3359 18.8301C9.56858 18.8301 8.94629 18.2081 8.94629 17.4404C8.94629 16.6731 9.56858 16.0508 10.3359 16.0508C11.103 16.0508 11.7253 16.6731 11.7253 17.4404Z" fill="white"/>
<path fill-rule="evenodd" clip-rule="evenodd" d="M20.3119 0C23.623 0 26.3073 2.68401 26.3073 5.99546C26.3073 9.30663 23.6233 11.9909 20.3119 11.9909C17.0007 11.9909 14.3164 9.30663 14.3164 5.99546C14.3164 2.6843 17.0007 0 20.3119 0ZM20.3119 2.6697C18.475 2.6697 16.9861 4.15891 16.9861 5.99546C16.9861 7.83201 18.475 9.32122 20.3119 9.32122C22.1487 9.32122 23.6376 7.8323 23.6376 5.99546C23.6376 4.15863 22.1487 2.6697 20.3119 2.6697Z" fill="white"/>
</g>
<defs>
<clipPath id="clip0_1_13276">
<rect width="115" height="27.8105" fill="white"/>
</clipPath>
</defs>
</svg>
