<svg width="8" height="13" viewBox="0 0 8 13" fill="none" xmlns="http://www.w3.org/2000/svg">
<path d="M5.13521 0.0585938C4.27528 0.0585938 3.45057 0.4002 2.84251 1.00826C2.23445 1.61632 1.89284 2.44103 1.89284 3.30096V5.10618H0.157737C0.0706211 5.10618 0 5.1768 0 5.26391V7.64749C0 7.73461 0.0706212 7.80523 0.157737 7.80523H1.89284V12.6951C1.89284 12.7822 1.96346 12.8528 2.05058 12.8528H4.43416C4.52128 12.8528 4.5919 12.7822 4.5919 12.6951V7.80523H6.34237C6.41475 7.80523 6.47785 7.75597 6.4954 7.68575L7.09129 5.30217C7.11618 5.20261 7.04089 5.10618 6.93827 5.10618H4.5919V3.30096C4.5919 3.15687 4.64914 3.01867 4.75103 2.91678C4.85292 2.81489 4.99112 2.75765 5.13521 2.75765H6.95795C7.04507 2.75765 7.11569 2.68703 7.11569 2.59991V0.216331C7.11569 0.129215 7.04507 0.0585938 6.95795 0.0585938H5.13521Z" fill="#B1B1B1"/>
</svg>
