<svg width="13" height="13" viewBox="0 0 13 13" fill="none" xmlns="http://www.w3.org/2000/svg">
<path d="M6.55937 4.17657C5.30103 4.17657 4.28095 5.19665 4.28095 6.45499C4.28095 7.71333 5.30103 8.73341 6.55937 8.73341C7.81771 8.73341 8.83779 7.71333 8.83779 6.45499C8.83779 5.19665 7.81771 4.17657 6.55937 4.17657Z" fill="#B1B1B1"/>
<path fill-rule="evenodd" clip-rule="evenodd" d="M2.89254 0.202628C5.30985 -0.0675426 7.8089 -0.0675426 10.2262 0.202628C11.5571 0.351373 12.6305 1.39999 12.7867 2.73554C13.0758 5.20675 13.0758 7.70323 12.7867 10.1744C12.6305 11.51 11.5571 12.5586 10.2262 12.7074C7.8089 12.9775 5.30985 12.9775 2.89254 12.7074C1.56166 12.5586 0.488212 11.51 0.332008 10.1744C0.0429766 7.70323 0.0429766 5.20675 0.332008 2.73554C0.488212 1.39999 1.56166 0.351373 2.89254 0.202628ZM10.0646 2.24867C9.67745 2.24867 9.36358 2.56255 9.36358 2.94973C9.36358 3.33691 9.67745 3.65078 10.0646 3.65078C10.4518 3.65078 10.7657 3.33691 10.7657 2.94973C10.7657 2.56255 10.4518 2.24867 10.0646 2.24867ZM3.22937 6.45499C3.22937 4.61588 4.72026 3.12499 6.55937 3.12499C8.39848 3.12499 9.88937 4.61588 9.88937 6.45499C9.88937 8.2941 8.39848 9.78499 6.55937 9.78499C4.72026 9.78499 3.22937 8.2941 3.22937 6.45499Z" fill="#B1B1B1"/>
</svg>
