<svg width="15" height="15" viewBox="0 0 15 15" fill="none" xmlns="http://www.w3.org/2000/svg">
<g clip-path="url(#clip0_2423_2203)">
<path d="M12.5148 0H1.97766C1.45367 0 0.951141 0.205705 0.580624 0.571863C0.210107 0.938021 0.00195313 1.43464 0.00195312 1.95246L0.00195313 12.3656C0.00195313 12.8834 0.210107 13.38 0.580624 13.7462C0.951141 14.1124 1.45367 14.3181 1.97766 14.3181H12.5148C13.0388 14.3181 13.5413 14.1124 13.9118 13.7462C14.2823 13.38 14.4905 12.8834 14.4905 12.3656V1.95246C14.4905 1.43464 14.2823 0.938021 13.9118 0.571863C13.5413 0.205705 13.0388 0 12.5148 0ZM4.94122 11.3308C4.94133 11.3705 4.93351 11.4098 4.91821 11.4465C4.90291 11.4833 4.88043 11.5166 4.85206 11.5447C4.82369 11.5729 4.78998 11.5952 4.75288 11.6104C4.71577 11.6256 4.67599 11.6334 4.63581 11.6334H3.33431C3.29407 11.6335 3.2542 11.6258 3.21699 11.6106C3.17979 11.5954 3.14599 11.5731 3.11753 11.545C3.08907 11.5169 3.06652 11.4835 3.05117 11.4467C3.03582 11.41 3.02797 11.3706 3.02808 11.3308V5.93874C3.02808 5.85848 3.06034 5.7815 3.11777 5.72475C3.1752 5.66799 3.25309 5.63611 3.33431 5.63611H4.63581C4.71688 5.63633 4.79457 5.6683 4.85182 5.72504C4.90907 5.78177 4.94122 5.85862 4.94122 5.93874V11.3308ZM3.98465 5.12522C3.74043 5.12522 3.50169 5.05365 3.29862 4.91956C3.09556 4.78547 2.93729 4.59489 2.84383 4.37191C2.75037 4.14893 2.72591 3.90357 2.77356 3.66686C2.8212 3.43015 2.93881 3.21271 3.1115 3.04205C3.28419 2.87139 3.50422 2.75517 3.74375 2.70808C3.98328 2.661 4.23156 2.68516 4.45719 2.77753C4.68283 2.86989 4.87568 3.02629 5.01136 3.22697C5.14704 3.42765 5.21947 3.66358 5.21947 3.90493C5.21947 4.22857 5.08937 4.53895 4.8578 4.7678C4.62622 4.99665 4.31214 5.12522 3.98465 5.12522ZM11.7442 11.3519C11.7443 11.3885 11.7371 11.4247 11.723 11.4585C11.7089 11.4923 11.6882 11.5231 11.662 11.5489C11.6359 11.5748 11.6048 11.5953 11.5706 11.6092C11.5364 11.6232 11.4997 11.6303 11.4627 11.6302H10.0632C10.0262 11.6303 9.98958 11.6232 9.95537 11.6092C9.92116 11.5953 9.89009 11.5748 9.86392 11.5489C9.83776 11.5231 9.81702 11.4923 9.80291 11.4585C9.7888 11.4247 9.78159 11.3885 9.7817 11.3519V8.82595C9.7817 8.44847 9.89366 7.17286 8.78315 7.17286C7.92289 7.17286 7.74755 8.04578 7.71297 8.43789V11.3552C7.71298 11.4283 7.68388 11.4984 7.63197 11.5505C7.58006 11.6026 7.5095 11.6324 7.43555 11.6334H6.08384C6.0469 11.6334 6.01033 11.6262 5.97622 11.6122C5.94211 11.5982 5.91113 11.5777 5.88505 11.5519C5.85897 11.526 5.83831 11.4954 5.82425 11.4616C5.81019 11.4279 5.80301 11.3917 5.80312 11.3552V5.91515C5.80301 5.87865 5.81019 5.84249 5.82425 5.80874C5.83831 5.77499 5.85897 5.74431 5.88505 5.71846C5.91113 5.69262 5.94211 5.67211 5.97622 5.65812C6.01033 5.64413 6.0469 5.63692 6.08384 5.63692H7.43555C7.51022 5.63692 7.58183 5.66624 7.63463 5.71841C7.68743 5.77059 7.71709 5.84136 7.71709 5.91515V6.38537C8.03649 5.91108 8.50984 5.54662 9.51992 5.54662C11.7574 5.54662 11.7426 7.61135 11.7426 8.74541L11.7442 11.3519Z" fill="#B1B1B1"/>
</g>
<defs>
<clipPath id="clip0_2423_2203">
<rect width="14.4885" height="14.3181" fill="white" transform="translate(0.00390625)"/>
</clipPath>
</defs>
</svg>
