<svg width="19" height="18" viewBox="0 0 19 18" fill="none" xmlns="http://www.w3.org/2000/svg">
<path d="M14.1995 4.9941C14.0982 4.94526 13.9997 4.89173 13.9042 4.83369C13.6265 4.66233 13.3719 4.46042 13.1458 4.23231C12.5802 3.62829 12.369 3.01553 12.2912 2.58651H12.2943C12.2293 2.23041 12.2562 2 12.2603 2H9.68428V11.2973C9.68428 11.4221 9.68428 11.5455 9.67865 11.6674C9.67865 11.6826 9.67709 11.6966 9.67615 11.7129C9.67615 11.7196 9.67615 11.7266 9.67459 11.7336C9.67459 11.7353 9.67459 11.7371 9.67459 11.7388C9.64744 12.0724 9.53287 12.3947 9.34097 12.6772C9.14907 12.9598 8.88572 13.194 8.57408 13.3593C8.24928 13.5317 7.88192 13.6222 7.50824 13.6218C6.30805 13.6218 5.33533 12.7083 5.33533 11.5802C5.33533 10.4521 6.30805 9.53862 7.50824 9.53862C7.73543 9.53843 7.96123 9.5718 8.17724 9.63749L8.18036 7.18937C7.52461 7.1103 6.85841 7.15895 6.2238 7.33223C5.58919 7.50551 4.99994 7.79967 4.49323 8.19615C4.04923 8.55622 3.67596 8.98586 3.39021 9.46571C3.28147 9.6407 2.8712 10.3439 2.82152 11.4851C2.79027 12.1329 2.99869 12.804 3.09805 13.0813V13.0872C3.16055 13.2505 3.40271 13.8078 3.79736 14.2777C4.11559 14.6546 4.49157 14.9857 4.91319 15.2603V15.2544L4.91944 15.2603C6.1665 16.0512 7.54918 15.9993 7.54918 15.9993C7.78853 15.9903 8.59032 15.9993 9.50086 15.5965C10.5108 15.15 11.0857 14.4848 11.0857 14.4848C11.453 14.0873 11.7451 13.6343 11.9494 13.1452C12.1825 12.5733 12.2603 11.8873 12.2603 11.6131V6.68072C12.2915 6.69822 12.7077 6.95517 12.7077 6.95517C12.7077 6.95517 13.3074 7.3139 14.2429 7.54751C14.9141 7.71376 15.8184 7.74875 15.8184 7.74875V5.36187C15.5015 5.39396 14.8581 5.30063 14.1995 4.9941Z" fill="#B1B1B1"/>
</svg>
