<svg width="15" height="14" viewBox="0 0 15 14" fill="none" xmlns="http://www.w3.org/2000/svg">
<path d="M14.4922 11.1574C14.4922 12.7208 13.213 14 11.6495 14H3.33483C1.77136 14 0.492188 12.7208 0.492188 11.1574V2.84264C0.492188 1.2792 1.77136 0 3.33483 0H11.6495C13.213 0 14.4922 1.2792 14.4922 2.84264V11.1574Z" fill="#B1B1B1"/>
<path d="M9.03304 6.28691L12.3791 2H11.4099L8.5486 5.66615L5.68701 2H2.49219L6.95103 7.71278L3.60471 12H4.57389L7.43547 8.33354L10.2974 12H13.4922L9.03304 6.28691ZM4.06768 2.77709H5.32414L11.9164 11.2228H10.6599L4.06768 2.77709Z" fill="#F0F0F1"/>
</svg>
