<svg width="19" height="18" viewBox="0 0 19 18" fill="none" xmlns="http://www.w3.org/2000/svg">
<path fill-rule="evenodd" clip-rule="evenodd" d="M5.69423 3.64179C8.1772 3.44753 10.6716 3.44753 13.1545 3.64179L14.8224 3.77228C15.7515 3.84496 16.5115 4.54124 16.6651 5.46037C17.0493 7.7601 17.0493 10.1077 16.6651 12.4074C16.5115 13.3265 15.7515 14.0228 14.8224 14.0955L13.1545 14.226C10.6716 14.4202 8.1772 14.4202 5.69423 14.226L4.02632 14.0955C3.09729 14.0228 2.33727 13.3265 2.18369 12.4074C1.79945 10.1077 1.79945 7.7601 2.18369 5.46037C2.33727 4.54124 3.09729 3.84496 4.02632 3.77228L5.69423 3.64179ZM7.93561 10.7726V7.09517C7.93561 6.9216 8.12498 6.81438 8.27382 6.90369L11.3383 8.74239C11.4829 8.82912 11.4829 9.03863 11.3383 9.12536L8.27382 10.9641C8.12498 11.0534 7.93561 10.9462 7.93561 10.7726Z" fill="#B1B1B1"/>
</svg>
