<svg width="67" height="67" viewBox="0 0 67 67" fill="none" xmlns="http://www.w3.org/2000/svg">
<g clip-path="url(#clip0_1_13312)">
<rect width="67" height="67" fill="white"/>
<path fill-rule="evenodd" clip-rule="evenodd" d="M31.5251 30.8504H31.5216L7.92969 7.19708L31.5251 7.14844V30.8504Z" fill="#0087CA"/>
<path fill-rule="evenodd" clip-rule="evenodd" d="M58.7663 37.5078L47.1455 49.1367L58.7663 60.9006V37.5078Z" fill="#0087CA"/>
<path fill-rule="evenodd" clip-rule="evenodd" d="M47.0027 37.5078L35.3818 49.1367L47.0027 60.9006V37.5078Z" fill="#0087CA"/>
<path fill-rule="evenodd" clip-rule="evenodd" d="M18.802 42.4413C18.802 43.9949 17.5426 45.2537 15.9896 45.2537C14.4366 45.2537 13.1777 43.9949 13.1777 42.4413C13.1777 40.8883 14.4366 39.6289 15.9896 39.6289C17.5426 39.6289 18.802 40.8883 18.802 42.4413Z" fill="#0087CA"/>
<path fill-rule="evenodd" clip-rule="evenodd" d="M30.1379 42.4413C30.1379 43.9949 28.8785 45.2537 27.3261 45.2537C25.7731 45.2537 24.5137 43.9949 24.5137 42.4413C24.5137 40.8883 25.7731 39.6289 27.3261 39.6289C28.8785 39.6289 30.1379 40.8883 30.1379 42.4413Z" fill="#0087CA"/>
<path fill-rule="evenodd" clip-rule="evenodd" d="M47.5167 7.14844C54.2179 7.14844 59.6505 12.5804 59.6505 19.2823C59.6505 25.9836 54.2185 31.4161 47.5167 31.4161C40.8154 31.4161 35.3828 25.9836 35.3828 19.2823C35.3828 12.581 40.8154 7.14844 47.5167 7.14844ZM47.5167 12.5515C43.7992 12.5515 40.7859 15.5654 40.7859 19.2823C40.7859 22.9992 43.7992 26.0131 47.5167 26.0131C51.2341 26.0131 54.2475 22.9997 54.2475 19.2823C54.2475 15.5648 51.2341 12.5515 47.5167 12.5515Z" fill="#0087CA"/>
</g>
<defs>
<clipPath id="clip0_1_13312">
<rect width="67" height="67" rx="5.65401" fill="white"/>
</clipPath>
</defs>
</svg>
