<svg width="52" height="52" viewBox="0 0 52 52" fill="none" xmlns="http://www.w3.org/2000/svg">
<path d="M26.0002 8.125C21.5128 8.125 17.8752 11.7627 17.8752 16.25C17.8752 20.7373 21.5128 24.375 26.0002 24.375C30.4875 24.375 34.1252 20.7373 34.1252 16.25C34.1252 11.7627 30.4875 8.125 26.0002 8.125Z" fill="#C4C4C4"/>
<path d="M17.3335 28.7083C12.8462 28.7083 9.2085 32.346 9.2085 36.8333V39.4079C9.2085 41.0399 10.3912 42.4315 12.0019 42.6944C21.2727 44.208 30.7276 44.208 39.9984 42.6944C41.6091 42.4315 42.7918 41.0399 42.7918 39.4079V36.8333C42.7918 32.346 39.1541 28.7083 34.6668 28.7083H33.9283C33.5285 28.7083 33.1313 28.7715 32.7513 28.8956L30.8761 29.508C27.7078 30.5425 24.2926 30.5425 21.1243 29.508L19.249 28.8956C18.869 28.7715 18.4718 28.7083 18.072 28.7083H17.3335Z" fill="#C4C4C4"/>
</svg>
