<svg width="238" height="138" viewBox="0 0 238 138" fill="none" xmlns="http://www.w3.org/2000/svg">
<rect width="238" height="138" rx="20" fill="#5DB8F6"/>
<path d="M26.0043 65V54.8182H29.8224C30.6046 54.8182 31.2609 54.964 31.7912 55.2557C32.3248 55.5473 32.7275 55.9484 32.9993 56.4588C33.2744 56.9659 33.4119 57.5426 33.4119 58.1889C33.4119 58.8419 33.2744 59.4219 32.9993 59.929C32.7242 60.4361 32.3182 60.8355 31.7812 61.1271C31.2443 61.4155 30.5831 61.5597 29.7976 61.5597H27.267V60.0433H29.549C30.0064 60.0433 30.3809 59.9638 30.6726 59.8047C30.9643 59.6456 31.1797 59.4268 31.3189 59.1484C31.4614 58.87 31.5327 58.5502 31.5327 58.1889C31.5327 57.8277 31.4614 57.5095 31.3189 57.2344C31.1797 56.9593 30.9626 56.7455 30.6676 56.593C30.3759 56.4373 29.9998 56.3594 29.5391 56.3594H27.8487V65H26.0043ZM34.5666 56.3643V54.8182H42.6902V56.3643H39.5431V65H37.7136V56.3643H34.5666ZM44.3333 65H42.3645L45.949 54.8182H48.226L51.8155 65H49.8468L47.1273 56.9062H47.0478L44.3333 65ZM44.3979 61.0078H49.7672V62.4893H44.3979V61.0078Z" fill="white"/>
<path d="M33.0795 75H32.0227C31.9602 74.696 31.8509 74.429 31.6946 74.1989C31.5412 73.9688 31.3537 73.7756 31.1321 73.6193C30.9134 73.4602 30.6705 73.3409 30.4034 73.2614C30.1364 73.1818 29.858 73.142 29.5682 73.142C29.0398 73.142 28.5611 73.2756 28.1321 73.5426C27.706 73.8097 27.3665 74.2031 27.1136 74.723C26.8636 75.2429 26.7386 75.8807 26.7386 76.6364C26.7386 77.392 26.8636 78.0298 27.1136 78.5497C27.3665 79.0696 27.706 79.4631 28.1321 79.7301C28.5611 79.9972 29.0398 80.1307 29.5682 80.1307C29.858 80.1307 30.1364 80.0909 30.4034 80.0114C30.6705 79.9318 30.9134 79.8139 31.1321 79.6577C31.3537 79.4986 31.5412 79.304 31.6946 79.0739C31.8509 78.8409 31.9602 78.5739 32.0227 78.2727H33.0795C33 78.7187 32.8551 79.1179 32.6449 79.4702C32.4347 79.8224 32.1733 80.1222 31.8608 80.3693C31.5483 80.6136 31.1974 80.7997 30.8082 80.9276C30.4219 81.0554 30.0085 81.1193 29.5682 81.1193C28.8239 81.1193 28.1619 80.9375 27.5824 80.5739C27.0028 80.2102 26.5469 79.6932 26.2145 79.0227C25.8821 78.3523 25.7159 77.5568 25.7159 76.6364C25.7159 75.7159 25.8821 74.9205 26.2145 74.25C26.5469 73.5795 27.0028 73.0625 27.5824 72.6989C28.1619 72.3352 28.8239 72.1534 29.5682 72.1534C30.0085 72.1534 30.4219 72.2173 30.8082 72.3452C31.1974 72.473 31.5483 72.6605 31.8608 72.9077C32.1733 73.152 32.4347 73.4503 32.6449 73.8026C32.8551 74.152 33 74.5511 33.0795 75ZM35.6566 72.2727V81H34.6509V72.2727H35.6566ZM37.4986 81V74.4545H38.5043V81H37.4986ZM38.0099 73.3636C37.8139 73.3636 37.6449 73.2969 37.5028 73.1634C37.3636 73.0298 37.294 72.8693 37.294 72.6818C37.294 72.4943 37.3636 72.3338 37.5028 72.2003C37.6449 72.0668 37.8139 72 38.0099 72C38.206 72 38.3736 72.0668 38.5128 72.2003C38.6548 72.3338 38.7259 72.4943 38.7259 72.6818C38.7259 72.8693 38.6548 73.0298 38.5128 73.1634C38.3736 73.2969 38.206 73.3636 38.0099 73.3636ZM43.0053 81.1364C42.3917 81.1364 41.8633 80.9915 41.4201 80.7017C40.9769 80.4119 40.636 80.0128 40.3974 79.5043C40.1587 78.9957 40.0394 78.4148 40.0394 77.7614C40.0394 77.0966 40.1616 76.5099 40.4059 76.0014C40.6531 75.4901 40.9968 75.0909 41.4371 74.804C41.8803 74.5142 42.3974 74.3693 42.9883 74.3693C43.4485 74.3693 43.8633 74.4545 44.2326 74.625C44.6019 74.7955 44.9045 75.0341 45.1403 75.3409C45.3761 75.6477 45.5224 76.0057 45.5792 76.4148H44.5735C44.4968 76.1165 44.3263 75.8523 44.0621 75.6222C43.8008 75.3892 43.4485 75.2727 43.0053 75.2727C42.6133 75.2727 42.2695 75.375 41.9741 75.5795C41.6815 75.7812 41.4528 76.0668 41.288 76.4361C41.1261 76.8026 41.0451 77.233 41.0451 77.7273C41.0451 78.233 41.1246 78.6733 41.2837 79.0483C41.4457 79.4233 41.6729 79.7145 41.9656 79.9219C42.261 80.1293 42.6076 80.233 43.0053 80.233C43.2667 80.233 43.5039 80.1875 43.717 80.0966C43.93 80.0057 44.1104 79.875 44.2582 79.7045C44.4059 79.5341 44.511 79.3295 44.5735 79.0909H45.5792C45.5224 79.4773 45.3817 79.8253 45.1573 80.1349C44.9357 80.4418 44.6417 80.6861 44.2752 80.8679C43.9116 81.0469 43.4883 81.1364 43.0053 81.1364ZM47.9869 78.6136L47.9698 77.3693H48.1744L51.038 74.4545H52.2823L49.2312 77.5398H49.146L47.9869 78.6136ZM47.0494 81V72.2727H48.055V81H47.0494ZM51.2085 81L48.6516 77.7614L49.3675 77.0625L52.4869 81H51.2085ZM57.9574 77.0625V81H56.9517V72.2727H57.9574V75.4773H58.0426C58.196 75.1392 58.4261 74.8707 58.733 74.6719C59.0426 74.4702 59.4545 74.3693 59.9688 74.3693C60.4148 74.3693 60.8054 74.4588 61.1406 74.6378C61.4759 74.8139 61.7358 75.0852 61.9205 75.4517C62.108 75.8153 62.2017 76.2784 62.2017 76.8409V81H61.196V76.9091C61.196 76.3892 61.0611 75.9872 60.7912 75.7031C60.5241 75.4162 60.1534 75.2727 59.679 75.2727C59.3494 75.2727 59.054 75.3423 58.7926 75.4815C58.5341 75.6207 58.3295 75.8239 58.179 76.0909C58.0313 76.358 57.9574 76.6818 57.9574 77.0625ZM66.7859 81.1364C66.1552 81.1364 65.6112 80.9972 65.1538 80.7188C64.6992 80.4375 64.3484 80.0455 64.1012 79.5426C63.8569 79.0369 63.7347 78.4489 63.7347 77.7784C63.7347 77.108 63.8569 76.517 64.1012 76.0057C64.3484 75.4915 64.6921 75.0909 65.1325 74.804C65.5756 74.5142 66.0927 74.3693 66.6836 74.3693C67.0245 74.3693 67.3612 74.4261 67.6935 74.5398C68.0259 74.6534 68.3285 74.8381 68.6012 75.0938C68.8739 75.3466 69.0913 75.6818 69.2532 76.0994C69.4151 76.517 69.4961 77.0312 69.4961 77.642V78.0682H64.4506V77.1989H68.4734C68.4734 76.8295 68.3995 76.5 68.2518 76.2102C68.1069 75.9205 67.8995 75.6918 67.6296 75.5241C67.3626 75.3565 67.0472 75.2727 66.6836 75.2727C66.283 75.2727 65.9364 75.3722 65.6438 75.571C65.354 75.767 65.131 76.0227 64.9748 76.3381C64.8185 76.6534 64.7404 76.9915 64.7404 77.3523V77.9318C64.7404 78.4261 64.8256 78.8452 64.9961 79.1889C65.1694 79.5298 65.4094 79.7898 65.7163 79.9688C66.0231 80.1449 66.3796 80.233 66.7859 80.233C67.0501 80.233 67.2887 80.196 67.5018 80.1222C67.7177 80.0455 67.9038 79.9318 68.06 79.7812C68.2163 79.6278 68.337 79.4375 68.4222 79.2102L69.3938 79.483C69.2915 79.8125 69.1197 80.1023 68.8782 80.3523C68.6367 80.5994 68.3384 80.7926 67.9833 80.9318C67.6282 81.0682 67.229 81.1364 66.7859 81.1364ZM71.0259 81V74.4545H71.9975V75.4432H72.0657C72.185 75.1193 72.4009 74.8565 72.7134 74.6548C73.0259 74.4531 73.3782 74.3523 73.7702 74.3523C73.8441 74.3523 73.9364 74.3537 74.0472 74.3565C74.158 74.3594 74.2418 74.3636 74.2987 74.3693V75.392C74.2646 75.3835 74.1864 75.3707 74.0643 75.3537C73.945 75.3338 73.8185 75.3239 73.685 75.3239C73.3668 75.3239 73.0827 75.3906 72.8327 75.5241C72.5856 75.6548 72.3896 75.8366 72.2447 76.0696C72.1026 76.2997 72.0316 76.5625 72.0316 76.858V81H71.0259ZM78.0359 81.1364C77.4052 81.1364 76.8612 80.9972 76.4038 80.7188C75.9492 80.4375 75.5984 80.0455 75.3512 79.5426C75.1069 79.0369 74.9847 78.4489 74.9847 77.7784C74.9847 77.108 75.1069 76.517 75.3512 76.0057C75.5984 75.4915 75.9421 75.0909 76.3825 74.804C76.8256 74.5142 77.3427 74.3693 77.9336 74.3693C78.2745 74.3693 78.6112 74.4261 78.9435 74.5398C79.2759 74.6534 79.5785 74.8381 79.8512 75.0938C80.1239 75.3466 80.3413 75.6818 80.5032 76.0994C80.6651 76.517 80.7461 77.0312 80.7461 77.642V78.0682H75.7006V77.1989H79.7234C79.7234 76.8295 79.6495 76.5 79.5018 76.2102C79.3569 75.9205 79.1495 75.6918 78.8796 75.5241C78.6126 75.3565 78.2972 75.2727 77.9336 75.2727C77.533 75.2727 77.1864 75.3722 76.8938 75.571C76.604 75.767 76.381 76.0227 76.2248 76.3381C76.0685 76.6534 75.9904 76.9915 75.9904 77.3523V77.9318C75.9904 78.4261 76.0756 78.8452 76.2461 79.1889C76.4194 79.5298 76.6594 79.7898 76.9663 79.9688C77.2731 80.1449 77.6296 80.233 78.0359 80.233C78.3001 80.233 78.5387 80.196 78.7518 80.1222C78.9677 80.0455 79.1538 79.9318 79.31 79.7812C79.4663 79.6278 79.587 79.4375 79.6722 79.2102L80.6438 79.483C80.5415 79.8125 80.3697 80.1023 80.1282 80.3523C79.8867 80.5994 79.5884 80.7926 79.2333 80.9318C78.8782 81.0682 78.479 81.1364 78.0359 81.1364ZM88.5657 74.4545V75.3068H85.0373V74.4545H88.5657ZM86.0941 81V73.5511C86.0941 73.1761 86.1822 72.8636 86.3583 72.6136C86.5344 72.3636 86.7631 72.1761 87.0444 72.0511C87.3256 71.9261 87.6225 71.8636 87.935 71.8636C88.1822 71.8636 88.3839 71.8835 88.5401 71.9233C88.6964 71.9631 88.8129 72 88.8896 72.0341L88.5998 72.9034C88.5487 72.8864 88.4776 72.8651 88.3867 72.8395C88.2987 72.8139 88.1822 72.8011 88.0373 72.8011C87.7049 72.8011 87.4648 72.8849 87.3171 73.0526C87.1722 73.2202 87.0998 73.4659 87.0998 73.7898V81H86.0941ZM92.3647 81.1364C91.7738 81.1364 91.2553 80.9957 90.8093 80.7145C90.3661 80.4332 90.0195 80.0398 89.7695 79.5341C89.5224 79.0284 89.3988 78.4375 89.3988 77.7614C89.3988 77.0795 89.5224 76.4844 89.7695 75.9759C90.0195 75.4673 90.3661 75.0724 90.8093 74.7912C91.2553 74.5099 91.7738 74.3693 92.3647 74.3693C92.9556 74.3693 93.4727 74.5099 93.9158 74.7912C94.3619 75.0724 94.7085 75.4673 94.9556 75.9759C95.2056 76.4844 95.3306 77.0795 95.3306 77.7614C95.3306 78.4375 95.2056 79.0284 94.9556 79.5341C94.7085 80.0398 94.3619 80.4332 93.9158 80.7145C93.4727 80.9957 92.9556 81.1364 92.3647 81.1364ZM92.3647 80.233C92.8136 80.233 93.1829 80.1179 93.4727 79.8878C93.7624 79.6577 93.9769 79.3551 94.1161 78.9801C94.2553 78.6051 94.3249 78.1989 94.3249 77.7614C94.3249 77.3239 94.2553 76.9162 94.1161 76.5384C93.9769 76.1605 93.7624 75.8551 93.4727 75.6222C93.1829 75.3892 92.8136 75.2727 92.3647 75.2727C91.9158 75.2727 91.5465 75.3892 91.2567 75.6222C90.967 75.8551 90.7525 76.1605 90.6133 76.5384C90.4741 76.9162 90.4045 77.3239 90.4045 77.7614C90.4045 78.1989 90.4741 78.6051 90.6133 78.9801C90.7525 79.3551 90.967 79.6577 91.2567 79.8878C91.5465 80.1179 91.9158 80.233 92.3647 80.233ZM96.8658 81V74.4545H97.8374V75.4432H97.9055C98.0249 75.1193 98.2408 74.8565 98.5533 74.6548C98.8658 74.4531 99.218 74.3523 99.6101 74.3523C99.6839 74.3523 99.7763 74.3537 99.8871 74.3565C99.9979 74.3594 100.082 74.3636 100.138 74.3693V75.392C100.104 75.3835 100.026 75.3707 99.9041 75.3537C99.7848 75.3338 99.6584 75.3239 99.5249 75.3239C99.2067 75.3239 98.9226 75.3906 98.6726 75.5241C98.4254 75.6548 98.2294 75.8366 98.0845 76.0696C97.9425 76.2997 97.8714 76.5625 97.8714 76.858V81H96.8658ZM104.842 81V72.2727H107.791C108.475 72.2727 109.035 72.3963 109.47 72.6435C109.907 72.8878 110.231 73.2188 110.441 73.6364C110.652 74.054 110.757 74.5199 110.757 75.0341C110.757 75.5483 110.652 76.0156 110.441 76.4361C110.234 76.8565 109.913 77.1918 109.478 77.4418C109.044 77.6889 108.487 77.8125 107.808 77.8125H105.694V76.875H107.774C108.243 76.875 108.619 76.794 108.903 76.6321C109.187 76.4702 109.393 76.2514 109.521 75.9759C109.652 75.6974 109.717 75.3835 109.717 75.0341C109.717 74.6847 109.652 74.3722 109.521 74.0966C109.393 73.821 109.186 73.6051 108.899 73.4489C108.612 73.2898 108.231 73.2102 107.757 73.2102H105.899V81H104.842ZM114.249 81.1534C113.834 81.1534 113.458 81.0753 113.12 80.919C112.782 80.7599 112.513 80.5312 112.314 80.233C112.115 79.9318 112.016 79.5682 112.016 79.142C112.016 78.767 112.09 78.4631 112.238 78.2301C112.385 77.9943 112.583 77.8097 112.83 77.6761C113.077 77.5426 113.35 77.4432 113.648 77.3778C113.949 77.3097 114.252 77.2557 114.556 77.2159C114.953 77.1648 115.276 77.1264 115.523 77.1009C115.773 77.0724 115.955 77.0256 116.069 76.9602C116.185 76.8949 116.243 76.7812 116.243 76.6193V76.5852C116.243 76.1648 116.128 75.8381 115.898 75.6051C115.671 75.3722 115.326 75.2557 114.863 75.2557C114.382 75.2557 114.006 75.3608 113.733 75.571C113.461 75.7812 113.269 76.0057 113.158 76.2443L112.203 75.9034C112.374 75.5057 112.601 75.196 112.885 74.9744C113.172 74.75 113.485 74.5937 113.823 74.5057C114.164 74.4148 114.499 74.3693 114.828 74.3693C115.039 74.3693 115.28 74.3949 115.553 74.446C115.828 74.4943 116.094 74.5952 116.35 74.7486C116.608 74.902 116.823 75.1335 116.993 75.4432C117.164 75.7528 117.249 76.1676 117.249 76.6875V81H116.243V80.1136H116.192C116.124 80.2557 116.01 80.4077 115.851 80.5696C115.692 80.7315 115.48 80.8693 115.216 80.983C114.952 81.0966 114.63 81.1534 114.249 81.1534ZM114.402 80.25C114.8 80.25 115.135 80.1719 115.408 80.0156C115.684 79.8594 115.891 79.6577 116.03 79.4105C116.172 79.1634 116.243 78.9034 116.243 78.6307V77.7102C116.201 77.7614 116.107 77.8082 115.962 77.8509C115.82 77.8906 115.655 77.9261 115.468 77.9574C115.283 77.9858 115.103 78.0114 114.926 78.0341C114.753 78.054 114.613 78.071 114.505 78.0852C114.243 78.1193 113.999 78.1747 113.772 78.2514C113.547 78.3253 113.365 78.4375 113.226 78.5881C113.09 78.7358 113.022 78.9375 113.022 79.1932C113.022 79.5426 113.151 79.8068 113.409 79.9858C113.671 80.1619 114.002 80.25 114.402 80.25ZM119.085 81V74.4545H120.056V75.4432H120.124C120.244 75.1193 120.46 74.8565 120.772 74.6548C121.085 74.4531 121.437 74.3523 121.829 74.3523C121.903 74.3523 121.995 74.3537 122.106 74.3565C122.217 74.3594 122.3 74.3636 122.357 74.3693V75.392C122.323 75.3835 122.245 75.3707 122.123 75.3537C122.004 75.3338 121.877 75.3239 121.744 75.3239C121.425 75.3239 121.141 75.3906 120.891 75.5241C120.644 75.6548 120.448 75.8366 120.303 76.0696C120.161 76.2997 120.09 76.5625 120.09 76.858V81H119.085ZM126.094 81.1364C125.464 81.1364 124.92 80.9972 124.462 80.7188C124.008 80.4375 123.657 80.0455 123.41 79.5426C123.165 79.0369 123.043 78.4489 123.043 77.7784C123.043 77.108 123.165 76.517 123.41 76.0057C123.657 75.4915 124.001 75.0909 124.441 74.804C124.884 74.5142 125.401 74.3693 125.992 74.3693C126.333 74.3693 126.67 74.4261 127.002 74.5398C127.335 74.6534 127.637 74.8381 127.91 75.0938C128.183 75.3466 128.4 75.6818 128.562 76.0994C128.724 76.517 128.805 77.0312 128.805 77.642V78.0682H123.759V77.1989H127.782C127.782 76.8295 127.708 76.5 127.56 76.2102C127.415 75.9205 127.208 75.6918 126.938 75.5241C126.671 75.3565 126.356 75.2727 125.992 75.2727C125.592 75.2727 125.245 75.3722 124.952 75.571C124.663 75.767 124.44 76.0227 124.283 76.3381C124.127 76.6534 124.049 76.9915 124.049 77.3523V77.9318C124.049 78.4261 124.134 78.8452 124.305 79.1889C124.478 79.5298 124.718 79.7898 125.025 79.9688C125.332 80.1449 125.688 80.233 126.094 80.233C126.359 80.233 126.597 80.196 126.81 80.1222C127.026 80.0455 127.212 79.9318 127.369 79.7812C127.525 79.6278 127.646 79.4375 127.731 79.2102L128.702 79.483C128.6 79.8125 128.428 80.1023 128.187 80.3523C127.945 80.5994 127.647 80.7926 127.292 80.9318C126.937 81.0682 126.538 81.1364 126.094 81.1364ZM131.34 77.0625V81H130.335V74.4545H131.306V75.4773H131.391C131.545 75.1449 131.778 74.8778 132.09 74.6761C132.403 74.4716 132.806 74.3693 133.3 74.3693C133.744 74.3693 134.131 74.4602 134.464 74.642C134.796 74.821 135.055 75.0938 135.239 75.4602C135.424 75.8239 135.516 76.2841 135.516 76.8409V81H134.511V76.9091C134.511 76.3949 134.377 75.9943 134.11 75.7074C133.843 75.4176 133.477 75.2727 133.011 75.2727C132.69 75.2727 132.403 75.3423 132.15 75.4815C131.9 75.6207 131.702 75.8239 131.558 76.0909C131.413 76.358 131.34 76.6818 131.34 77.0625ZM140.201 74.4545V75.3068H136.809V74.4545H140.201ZM137.797 72.8864H138.803V79.125C138.803 79.4091 138.844 79.6222 138.926 79.7642C139.012 79.9034 139.12 79.9972 139.25 80.0455C139.384 80.0909 139.525 80.1136 139.672 80.1136C139.783 80.1136 139.874 80.108 139.945 80.0966C140.016 80.0824 140.073 80.071 140.115 80.0625L140.32 80.9659C140.252 80.9915 140.157 81.017 140.034 81.0426C139.912 81.071 139.757 81.0852 139.57 81.0852C139.286 81.0852 139.007 81.0241 138.735 80.902C138.465 80.7798 138.24 80.5938 138.061 80.3438C137.885 80.0938 137.797 79.7784 137.797 79.3977V72.8864ZM147.015 81.1534C146.6 81.1534 146.223 81.0753 145.885 80.919C145.547 80.7599 145.279 80.5312 145.08 80.233C144.881 79.9318 144.782 79.5682 144.782 79.142C144.782 78.767 144.855 78.4631 145.003 78.2301C145.151 77.9943 145.348 77.8097 145.596 77.6761C145.843 77.5426 146.115 77.4432 146.414 77.3778C146.715 77.3097 147.017 77.2557 147.321 77.2159C147.719 77.1648 148.042 77.1264 148.289 77.1009C148.539 77.0724 148.721 77.0256 148.834 76.9602C148.951 76.8949 149.009 76.7812 149.009 76.6193V76.5852C149.009 76.1648 148.894 75.8381 148.664 75.6051C148.436 75.3722 148.091 75.2557 147.628 75.2557C147.148 75.2557 146.772 75.3608 146.499 75.571C146.226 75.7812 146.034 76.0057 145.924 76.2443L144.969 75.9034C145.14 75.5057 145.367 75.196 145.651 74.9744C145.938 74.75 146.25 74.5937 146.588 74.5057C146.929 74.4148 147.265 74.3693 147.594 74.3693C147.804 74.3693 148.046 74.3949 148.319 74.446C148.594 74.4943 148.86 74.5952 149.115 74.7486C149.374 74.902 149.588 75.1335 149.759 75.4432C149.929 75.7528 150.015 76.1676 150.015 76.6875V81H149.009V80.1136H148.958C148.89 80.2557 148.776 80.4077 148.617 80.5696C148.458 80.7315 148.246 80.8693 147.982 80.983C147.718 81.0966 147.395 81.1534 147.015 81.1534ZM147.168 80.25C147.566 80.25 147.901 80.1719 148.174 80.0156C148.449 79.8594 148.657 79.6577 148.796 79.4105C148.938 79.1634 149.009 78.9034 149.009 78.6307V77.7102C148.966 77.7614 148.873 77.8082 148.728 77.8509C148.586 77.8906 148.421 77.9261 148.233 77.9574C148.049 77.9858 147.868 78.0114 147.692 78.0341C147.519 78.054 147.378 78.071 147.27 78.0852C147.009 78.1193 146.765 78.1747 146.537 78.2514C146.313 78.3253 146.131 78.4375 145.992 78.5881C145.855 78.7358 145.787 78.9375 145.787 79.1932C145.787 79.5426 145.917 79.8068 146.175 79.9858C146.436 80.1619 146.767 80.25 147.168 80.25ZM152.856 77.0625V81H151.85V74.4545H152.822V75.4773H152.907C153.06 75.1449 153.293 74.8778 153.606 74.6761C153.918 74.4716 154.322 74.3693 154.816 74.3693C155.259 74.3693 155.647 74.4602 155.979 74.642C156.312 74.821 156.57 75.0938 156.755 75.4602C156.94 75.8239 157.032 76.2841 157.032 76.8409V81H156.026V76.9091C156.026 76.3949 155.893 75.9943 155.626 75.7074C155.359 75.4176 154.992 75.2727 154.526 75.2727C154.205 75.2727 153.918 75.3423 153.665 75.4815C153.415 75.6207 153.218 75.8239 153.073 76.0909C152.928 76.358 152.856 76.6818 152.856 77.0625ZM161.341 81.1364C160.796 81.1364 160.314 80.9986 159.897 80.723C159.479 80.4446 159.152 80.0526 158.917 79.5469C158.681 79.0384 158.563 78.4375 158.563 77.7443C158.563 77.0568 158.681 76.4602 158.917 75.9545C159.152 75.4489 159.48 75.0582 159.901 74.7827C160.321 74.5071 160.807 74.3693 161.358 74.3693C161.784 74.3693 162.121 74.4403 162.368 74.5824C162.618 74.7216 162.809 74.8807 162.939 75.0597C163.073 75.2358 163.176 75.3807 163.25 75.4943H163.336V72.2727H164.341V81H163.37V79.9943H163.25C163.176 80.1136 163.071 80.2642 162.935 80.446C162.799 80.625 162.604 80.7855 162.351 80.9276C162.098 81.0668 161.762 81.1364 161.341 81.1364ZM161.478 80.233C161.881 80.233 162.222 80.1278 162.5 79.9176C162.779 79.7045 162.99 79.4105 163.135 79.0355C163.28 78.6577 163.353 78.2216 163.353 77.7273C163.353 77.2386 163.282 76.8111 163.14 76.4446C162.998 76.0753 162.787 75.7884 162.509 75.5838C162.23 75.3764 161.887 75.2727 161.478 75.2727C161.051 75.2727 160.696 75.3821 160.412 75.6009C160.131 75.8168 159.919 76.1108 159.777 76.483C159.638 76.8523 159.569 77.267 159.569 77.7273C159.569 78.1932 159.64 78.6165 159.782 78.9972C159.926 79.375 160.14 79.6761 160.421 79.9006C160.705 80.1222 161.057 80.233 161.478 80.233ZM25.5795 88.2102V87.2727H32.125V88.2102H29.3807V96H28.3239V88.2102H25.5795ZM35.4148 96.1364C34.7841 96.1364 34.2401 95.9972 33.7827 95.7188C33.3281 95.4375 32.9773 95.0455 32.7301 94.5426C32.4858 94.0369 32.3636 93.4489 32.3636 92.7784C32.3636 92.108 32.4858 91.517 32.7301 91.0057C32.9773 90.4915 33.321 90.0909 33.7614 89.804C34.2045 89.5142 34.7216 89.3693 35.3125 89.3693C35.6534 89.3693 35.9901 89.4261 36.3224 89.5398C36.6548 89.6534 36.9574 89.8381 37.2301 90.0938C37.5028 90.3466 37.7202 90.6818 37.8821 91.0994C38.044 91.517 38.125 92.0312 38.125 92.642V93.0682H33.0795V92.1989H37.1023C37.1023 91.8295 37.0284 91.5 36.8807 91.2102C36.7358 90.9205 36.5284 90.6918 36.2585 90.5241C35.9915 90.3565 35.6761 90.2727 35.3125 90.2727C34.9119 90.2727 34.5653 90.3722 34.2727 90.571C33.983 90.767 33.7599 91.0227 33.6037 91.3381C33.4474 91.6534 33.3693 91.9915 33.3693 92.3523V92.9318C33.3693 93.4261 33.4545 93.8452 33.625 94.1889C33.7983 94.5298 34.0384 94.7898 34.3452 94.9688C34.652 95.1449 35.0085 95.233 35.4148 95.233C35.679 95.233 35.9176 95.196 36.1307 95.1222C36.3466 95.0455 36.5327 94.9318 36.6889 94.7812C36.8452 94.6278 36.9659 94.4375 37.0511 94.2102L38.0227 94.483C37.9205 94.8125 37.7486 95.1023 37.5071 95.3523C37.2656 95.5994 36.9673 95.7926 36.6122 95.9318C36.2571 96.0682 35.858 96.1364 35.4148 96.1364ZM41.581 96.1534C41.1662 96.1534 40.7898 96.0753 40.4517 95.919C40.1136 95.7599 39.8452 95.5312 39.6463 95.233C39.4474 94.9318 39.348 94.5682 39.348 94.142C39.348 93.767 39.4219 93.4631 39.5696 93.2301C39.7173 92.9943 39.9148 92.8097 40.1619 92.6761C40.4091 92.5426 40.6818 92.4432 40.9801 92.3778C41.2813 92.3097 41.5838 92.2557 41.8878 92.2159C42.2855 92.1648 42.608 92.1264 42.8551 92.1009C43.1051 92.0724 43.2869 92.0256 43.4006 91.9602C43.517 91.8949 43.5753 91.7812 43.5753 91.6193V91.5852C43.5753 91.1648 43.4602 90.8381 43.2301 90.6051C43.0028 90.3722 42.6577 90.2557 42.1946 90.2557C41.7145 90.2557 41.3381 90.3608 41.0653 90.571C40.7926 90.7812 40.6009 91.0057 40.4901 91.2443L39.5355 90.9034C39.706 90.5057 39.9332 90.196 40.2173 89.9744C40.5043 89.75 40.8168 89.5937 41.1548 89.5057C41.4957 89.4148 41.831 89.3693 42.1605 89.3693C42.3707 89.3693 42.6122 89.3949 42.8849 89.446C43.1605 89.4943 43.4261 89.5952 43.6818 89.7486C43.9403 89.902 44.1548 90.1335 44.3253 90.4432C44.4957 90.7528 44.581 91.1676 44.581 91.6875V96H43.5753V95.1136H43.5241C43.456 95.2557 43.3423 95.4077 43.1832 95.5696C43.0241 95.7315 42.8125 95.8693 42.5483 95.983C42.2841 96.0966 41.9616 96.1534 41.581 96.1534ZM41.7344 95.25C42.1321 95.25 42.4673 95.1719 42.7401 95.0156C43.0156 94.8594 43.223 94.6577 43.3622 94.4105C43.5043 94.1634 43.5753 93.9034 43.5753 93.6307V92.7102C43.5327 92.7614 43.4389 92.8082 43.294 92.8509C43.152 92.8906 42.9872 92.9261 42.7997 92.9574C42.6151 92.9858 42.4347 93.0114 42.2585 93.0341C42.0852 93.054 41.9446 93.071 41.8366 93.0852C41.5753 93.1193 41.331 93.1747 41.1037 93.2514C40.8793 93.3253 40.6974 93.4375 40.5582 93.5881C40.4219 93.7358 40.3537 93.9375 40.3537 94.1932C40.3537 94.5426 40.483 94.8068 40.7415 94.9858C41.0028 95.1619 41.3338 95.25 41.7344 95.25ZM49.0756 96.1364C48.462 96.1364 47.9336 95.9915 47.4904 95.7017C47.0472 95.4119 46.7063 95.0128 46.4677 94.5043C46.229 93.9957 46.1097 93.4148 46.1097 92.7614C46.1097 92.0966 46.2319 91.5099 46.4762 91.0014C46.7234 90.4901 47.0671 90.0909 47.5075 89.804C47.9506 89.5142 48.4677 89.3693 49.0586 89.3693C49.5188 89.3693 49.9336 89.4545 50.3029 89.625C50.6722 89.7955 50.9748 90.0341 51.2106 90.3409C51.4464 90.6477 51.5927 91.0057 51.6495 91.4148H50.6438C50.5671 91.1165 50.3967 90.8523 50.1325 90.6222C49.8711 90.3892 49.5188 90.2727 49.0756 90.2727C48.6836 90.2727 48.3398 90.375 48.0444 90.5795C47.7518 90.7812 47.5231 91.0668 47.3583 91.4361C47.1964 91.8026 47.1154 92.233 47.1154 92.7273C47.1154 93.233 47.195 93.6733 47.354 94.0483C47.516 94.4233 47.7433 94.7145 48.0359 94.9219C48.3313 95.1293 48.6779 95.233 49.0756 95.233C49.337 95.233 49.5742 95.1875 49.7873 95.0966C50.0004 95.0057 50.1808 94.875 50.3285 94.7045C50.4762 94.5341 50.5813 94.3295 50.6438 94.0909H51.6495C51.5927 94.4773 51.4521 94.8253 51.2276 95.1349C51.006 95.4418 50.712 95.6861 50.3455 95.8679C49.9819 96.0469 49.5586 96.1364 49.0756 96.1364ZM54.1254 92.0625V96H53.1197V87.2727H54.1254V90.4773H54.2106C54.364 90.1392 54.5941 89.8707 54.9009 89.6719C55.2106 89.4702 55.6225 89.3693 56.1367 89.3693C56.5827 89.3693 56.9734 89.4588 57.3086 89.6378C57.6438 89.8139 57.9038 90.0852 58.0884 90.4517C58.2759 90.8153 58.3697 91.2784 58.3697 91.8409V96H57.364V91.9091C57.364 91.3892 57.229 90.9872 56.9592 90.7031C56.6921 90.4162 56.3214 90.2727 55.8469 90.2727C55.5174 90.2727 55.2219 90.3423 54.9606 90.4815C54.7021 90.6207 54.4975 90.8239 54.3469 91.0909C54.1992 91.358 54.1254 91.6818 54.1254 92.0625ZM62.9538 96.1364C62.3232 96.1364 61.7791 95.9972 61.3217 95.7188C60.8672 95.4375 60.5163 95.0455 60.2692 94.5426C60.0249 94.0369 59.9027 93.4489 59.9027 92.7784C59.9027 92.108 60.0249 91.517 60.2692 91.0057C60.5163 90.4915 60.8601 90.0909 61.3004 89.804C61.7436 89.5142 62.2607 89.3693 62.8516 89.3693C63.1925 89.3693 63.5291 89.4261 63.8615 89.5398C64.1939 89.6534 64.4964 89.8381 64.7692 90.0938C65.0419 90.3466 65.2592 90.6818 65.4212 91.0994C65.5831 91.517 65.6641 92.0312 65.6641 92.642V93.0682H60.6186V92.1989H64.6413C64.6413 91.8295 64.5675 91.5 64.4197 91.2102C64.2749 90.9205 64.0675 90.6918 63.7976 90.5241C63.5305 90.3565 63.2152 90.2727 62.8516 90.2727C62.451 90.2727 62.1044 90.3722 61.8118 90.571C61.522 90.767 61.299 91.0227 61.1428 91.3381C60.9865 91.6534 60.9084 91.9915 60.9084 92.3523V92.9318C60.9084 93.4261 60.9936 93.8452 61.1641 94.1889C61.3374 94.5298 61.5774 94.7898 61.8842 94.9688C62.1911 95.1449 62.5476 95.233 62.9538 95.233C63.218 95.233 63.4567 95.196 63.6697 95.1222C63.8857 95.0455 64.0717 94.9318 64.228 94.7812C64.3842 94.6278 64.505 94.4375 64.5902 94.2102L65.5618 94.483C65.4595 94.8125 65.2876 95.1023 65.0462 95.3523C64.8047 95.5994 64.5064 95.7926 64.1513 95.9318C63.7962 96.0682 63.397 96.1364 62.9538 96.1364ZM67.1939 96V89.4545H68.1655V90.4432H68.2337C68.353 90.1193 68.5689 89.8565 68.8814 89.6548C69.1939 89.4531 69.5462 89.3523 69.9382 89.3523C70.0121 89.3523 70.1044 89.3537 70.2152 89.3565C70.326 89.3594 70.4098 89.3636 70.4666 89.3693V90.392C70.4325 90.3835 70.3544 90.3707 70.2322 90.3537C70.1129 90.3338 69.9865 90.3239 69.853 90.3239C69.5348 90.3239 69.2507 90.3906 69.0007 90.5241C68.7536 90.6548 68.5575 90.8366 68.4126 91.0696C68.2706 91.2997 68.1996 91.5625 68.1996 91.858V96H67.1939ZM76.2951 90.9205L75.3917 91.1761C75.3349 91.0256 75.2511 90.8793 75.1403 90.7372C75.0323 90.5923 74.8846 90.473 74.6971 90.3793C74.5096 90.2855 74.2695 90.2386 73.9769 90.2386C73.5763 90.2386 73.2425 90.331 72.9755 90.5156C72.7113 90.6974 72.5792 90.929 72.5792 91.2102C72.5792 91.4602 72.6701 91.6577 72.8519 91.8026C73.0337 91.9474 73.3178 92.0682 73.7042 92.1648L74.6758 92.4034C75.261 92.5455 75.6971 92.7628 75.984 93.0554C76.271 93.3452 76.4144 93.7187 76.4144 94.1761C76.4144 94.5511 76.3065 94.8864 76.0906 95.1818C75.8775 95.4773 75.5792 95.7102 75.1957 95.8807C74.8121 96.0511 74.3661 96.1364 73.8576 96.1364C73.19 96.1364 72.6374 95.9915 72.1999 95.7017C71.7624 95.4119 71.4854 94.9886 71.369 94.4318L72.3235 94.1932C72.4144 94.5455 72.5863 94.8097 72.8391 94.9858C73.0948 95.1619 73.4286 95.25 73.8406 95.25C74.3093 95.25 74.6815 95.1506 74.957 94.9517C75.2354 94.75 75.3746 94.5085 75.3746 94.2273C75.3746 94 75.2951 93.8097 75.136 93.6562C74.9769 93.5 74.7326 93.3835 74.4031 93.3068L73.3121 93.0511C72.7127 92.9091 72.2724 92.6889 71.9911 92.3906C71.7127 92.0895 71.5735 91.7131 71.5735 91.2614C71.5735 90.892 71.6772 90.5653 71.8846 90.2812C72.0948 89.9972 72.3803 89.7741 72.7411 89.6122C73.1048 89.4503 73.5167 89.3693 73.9769 89.3693C74.6246 89.3693 75.1332 89.5114 75.5025 89.7955C75.8746 90.0795 76.1388 90.4545 76.2951 90.9205ZM81.4396 96V87.2727H82.4453V90.4943H82.5305C82.6044 90.3807 82.7067 90.2358 82.8374 90.0597C82.9709 89.8807 83.1612 89.7216 83.4084 89.5824C83.6584 89.4403 83.9964 89.3693 84.4226 89.3693C84.9737 89.3693 85.4595 89.5071 85.88 89.7827C86.3004 90.0582 86.6286 90.4489 86.8643 90.9545C87.1001 91.4602 87.218 92.0568 87.218 92.7443C87.218 93.4375 87.1001 94.0384 86.8643 94.5469C86.6286 95.0526 86.3018 95.4446 85.8842 95.723C85.4666 95.9986 84.9851 96.1364 84.4396 96.1364C84.0192 96.1364 83.6825 96.0668 83.4297 95.9276C83.1768 95.7855 82.9822 95.625 82.8459 95.446C82.7095 95.2642 82.6044 95.1136 82.5305 94.9943H82.4112V96H81.4396ZM82.4283 92.7273C82.4283 93.2216 82.5007 93.6577 82.6456 94.0355C82.7905 94.4105 83.0021 94.7045 83.2805 94.9176C83.5589 95.1278 83.8999 95.233 84.3033 95.233C84.7237 95.233 85.0746 95.1222 85.3558 94.9006C85.6399 94.6761 85.853 94.375 85.995 93.9972C86.1399 93.6165 86.2124 93.1932 86.2124 92.7273C86.2124 92.267 86.1413 91.8523 85.9993 91.483C85.8601 91.1108 85.6484 90.8168 85.3643 90.6009C85.0831 90.3821 84.7294 90.2727 84.3033 90.2727C83.8942 90.2727 83.5504 90.3764 83.272 90.5838C82.9936 90.7884 82.7834 91.0753 82.6413 91.4446C82.4993 91.8111 82.4283 92.2386 82.4283 92.7273ZM89.7621 87.2727V96H88.7564V87.2727H89.7621ZM94.2631 96.1364C93.6722 96.1364 93.1538 95.9957 92.7077 95.7145C92.2646 95.4332 91.918 95.0398 91.668 94.5341C91.4208 94.0284 91.2972 93.4375 91.2972 92.7614C91.2972 92.0795 91.4208 91.4844 91.668 90.9759C91.918 90.4673 92.2646 90.0724 92.7077 89.7912C93.1538 89.5099 93.6722 89.3693 94.2631 89.3693C94.854 89.3693 95.3711 89.5099 95.8143 89.7912C96.2603 90.0724 96.6069 90.4673 96.854 90.9759C97.104 91.4844 97.229 92.0795 97.229 92.7614C97.229 93.4375 97.104 94.0284 96.854 94.5341C96.6069 95.0398 96.2603 95.4332 95.8143 95.7145C95.3711 95.9957 94.854 96.1364 94.2631 96.1364ZM94.2631 95.233C94.712 95.233 95.0813 95.1179 95.3711 94.8878C95.6609 94.6577 95.8754 94.3551 96.0146 93.9801C96.1538 93.6051 96.2234 93.1989 96.2234 92.7614C96.2234 92.3239 96.1538 91.9162 96.0146 91.5384C95.8754 91.1605 95.6609 90.8551 95.3711 90.6222C95.0813 90.3892 94.712 90.2727 94.2631 90.2727C93.8143 90.2727 93.445 90.3892 93.1552 90.6222C92.8654 90.8551 92.6509 91.1605 92.5117 91.5384C92.3725 91.9162 92.3029 92.3239 92.3029 92.7614C92.3029 93.1989 92.3725 93.6051 92.5117 93.9801C92.6509 94.3551 92.8654 94.6577 93.1552 94.8878C93.445 95.1179 93.8143 95.233 94.2631 95.233ZM101.406 98.5909C100.92 98.5909 100.503 98.5284 100.153 98.4034C99.804 98.2812 99.5128 98.1193 99.2798 97.9176C99.0497 97.7188 98.8665 97.5057 98.7301 97.2784L99.5312 96.7159C99.6222 96.8352 99.7372 96.9716 99.8764 97.125C100.016 97.2812 100.206 97.4162 100.447 97.5298C100.692 97.6463 101.011 97.7045 101.406 97.7045C101.935 97.7045 102.371 97.5767 102.714 97.321C103.058 97.0653 103.23 96.6648 103.23 96.1193V94.7898H103.145C103.071 94.9091 102.966 95.0568 102.83 95.233C102.696 95.4062 102.503 95.5611 102.25 95.6974C102 95.831 101.662 95.8977 101.236 95.8977C100.707 95.8977 100.233 95.7727 99.8125 95.5227C99.3949 95.2727 99.0639 94.9091 98.8196 94.4318C98.5781 93.9545 98.4574 93.375 98.4574 92.6932C98.4574 92.0227 98.5753 91.4389 98.8111 90.9418C99.0469 90.4418 99.375 90.0554 99.7955 89.7827C100.216 89.5071 100.702 89.3693 101.253 89.3693C101.679 89.3693 102.017 89.4403 102.267 89.5824C102.52 89.7216 102.713 89.8807 102.847 90.0597C102.983 90.2358 103.088 90.3807 103.162 90.4943H103.264V89.4545H104.236V96.1875C104.236 96.75 104.108 97.2074 103.852 97.5597C103.599 97.9148 103.259 98.1747 102.83 98.3395C102.403 98.5071 101.929 98.5909 101.406 98.5909ZM101.372 94.9943C101.776 94.9943 102.116 94.902 102.395 94.7173C102.673 94.5327 102.885 94.267 103.03 93.9205C103.175 93.5739 103.247 93.1591 103.247 92.6761C103.247 92.2045 103.176 91.7884 103.034 91.4276C102.892 91.0668 102.682 90.7841 102.403 90.5795C102.125 90.375 101.781 90.2727 101.372 90.2727C100.946 90.2727 100.591 90.3807 100.307 90.5966C100.026 90.8125 99.8139 91.1023 99.6719 91.4659C99.5327 91.8295 99.4631 92.233 99.4631 92.6761C99.4631 93.1307 99.5341 93.5327 99.6761 93.8821C99.821 94.2287 100.034 94.5014 100.315 94.7003C100.599 94.8963 100.952 94.9943 101.372 94.9943Z" fill="white"/>
<circle cx="190.5" cy="40.5" r="19.5" fill="#FFDE32"/>
<path d="M237.542 122.277C235.583 131.268 227.578 138 218 138H202.75C200.392 134.776 199 130.801 199 126.5C199 115.73 207.73 107 218.5 107C227.82 107 235.612 113.538 237.542 122.277Z" fill="#E5E5E5"/>
<path d="M120.536 138C119.541 135.185 119 132.156 119 129C119 114.088 131.088 102 146 102C160.912 102 173 114.088 173 129C173 132.156 172.459 135.185 171.464 138H163.865C165.231 135.295 166 132.237 166 129C166 117.954 157.046 109 146 109C134.954 109 126 117.954 126 129C126 132.237 126.769 135.295 128.135 138H120.536Z" fill="#102689"/>
</svg>
